<svg xmlns="http://www.w3.org/2000/svg" baseProfile="tiny" viewBox="0 0 521.7 134.2" overflow="visible" xmlns:v="https://vecta.io/nano"><path fill="#949494" d="M140.4 16.5c-5.9-8-29.9-.5-58.4 16.9l.4 1.4c23.9-14 43.6-20.4 48.8-13.4 6.8 9.3-15.1 37.5-48.9 62.9s-66.8 38.5-73.6 29.2c-3.5-4.7.5-14.3 9.6-25.8l-1.8-.1c-13.1 15.1-19.2 27.7-15 33.5 7.5 10.2 44.7-4.8 83.1-33.7 38.2-29 63.2-60.7 55.8-70.9z"/><path d="M127 25.6L85 43.4 71.6 0 59.3 44 16.8 27.2l26.8 36.9L4.1 86.8l45.5 2.3-1.9 12.7c9.3-4.9 20.1-11.6 32.1-20.6C88.1 75 95.2 69 101.2 63.3L127 25.6zM42.9 134.2l29.4-33.6c-9.3 6.2-18.3 11.5-26.7 15.8l-2.7 17.8zM141.4 85l-29.3-16c-8.4 7.8-17.3 15.2-25.4 21.3-4.5 3.4-9.1 6.6-13.6 9.7l30.9 33.2-8.1-44.7 45.5-3.5zm205.1-39.9c-7.6-7.1-17.5-10.7-29.6-10.7-9.4 0-17.5 2.2-24.1 6.5-2 1.3-3.9 2.8-5.7 4.5-5.3 5-8.8 11.1-10.4 18.3-.8 3.2-1.2 6.6-1.2 10.2 0 3.4.3 6.5 1 9.6 1.6 7.4 5.1 13.8 10.5 19v.1a45.16 45.16 0 0 0 4.9 4c2.5 1.7 5.1 3.1 7.9 4.1 5.1 2 10.8 2.9 17.1 2.9 6.3.1 12.1-.9 17.1-2.9 4.7-1.8 8.8-4.4 12.5-7.8.1-.2.2-.3.3-.3 0-.1.1-.2.1-.2 7.5-7.3 11.3-16.7 11.3-28.4s-3.8-21.2-11.5-28.5c0-.2-.1-.3-.2-.4h0zm-29.7 17c3.4 0 6.2 1.1 8.4 3.3.1.1.2.1.3.3 2 2.1 2.9 4.8 3 8-.1 3.3-1.1 6-3.2 8-2.2 2.1-5 3.1-8.4 3.1s-6.2-1-8.2-3c-.1 0-.1 0-.1-.1-2.2-2.1-3.2-4.7-3.3-8 0-3.3 1-5.9 3.1-8 0-.1.2-.2.3-.2 2-2.3 4.8-3.4 8.1-3.4h0zm67.5.4c.9-1.1 2.1-1.6 3.6-1.6s2.8.6 3.6 1.6c.9 1.1 1.3 2.6 1.3 4.5v43.2l29 .1V67c0-1.9.5-3.4 1.3-4.5s1.9-1.6 3.5-1.6c1.7 0 2.9.6 3.8 1.6.9 1.1 1.3 2.6 1.3 4.5v43.3h29.2V61c0-8.6-2-15.3-5.9-19.9-4-4.7-9.7-7-17.2-7-3.9 0-7.4.6-10.5 2-3 1.4-5.6 3.5-8 6.2-2.5-2.8-5.1-4.9-7.8-6.2-2.9-1.4-6-2-9.4-2-4.4 0-8.4 1-12 3-3.7 1.9-6.8 4.8-9.4 8.6v-11h-26.8v10.4l.3.3c6.6 12.1 8.7 19.5 8.7 28.5 0 9.2-1.7 15.7-8.7 28.6-.1.1-.2.1-.3.3v7.5l29.3.1V67c-.1-1.9.3-3.4 1.1-4.5h0zM248.4 73.3c0-3.7 1.2-6.6 3.6-8.9 2.3-2.3 5.4-3.4 9.4-3.4 1.6 0 10.7 1.2 10.4 2.6 2.5-11.9 11.7-21.4 13.7-22.7-3.4-1.9-7-3.3-10.7-4.3-5-1.5-10.2-2.2-15.6-2.2-12.2 0-22.1 3.7-29.8 11s-11.6 16.8-11.6 28.5c0 11.8 3.8 21.3 11.5 28.6 3.7 3.6 8 6.3 12.8 8.1 5.1 2 10.8 2.9 17 2.9 5.8 0 11.3-.9 16.3-2.6.2-.1.6-.2.8-.3 3-1.1 5.7-2.5 8.4-4.1-1.8-1.2-10.8-11.5-13.2-23.2.2.9-8.4 2.4-10.5 2.4-3.9 0-6.9-1.2-9.3-3.4-2.1-2.3-3.2-5.3-3.2-9h0z" fill="#00569d"/><path d="M144.5 51.8V69l11.6-4.6v45.9h20.6V34.8zm36 0V69l11.6-4.6v45.9h20.6V34.8zm284.1-17.1v20.9h26.5l-22.2 54.7h26.6l26.2-75.6z" fill="#949494"/></svg>