<?xml version="1.0" encoding="UTF-8" standalone="no"?>
<svg
   id="Layer_2"
   data-name="Layer 2"
   viewBox="0 0 197.46 57.04"
   version="1.1"
   sodipodi:docname="awesome.svg"
   inkscape:version="1.2.2 (b0a8486541, 2022-12-01)"
   xmlns:inkscape="http://www.inkscape.org/namespaces/inkscape"
   xmlns:sodipodi="http://sodipodi.sourceforge.net/DTD/sodipodi-0.dtd"
   xmlns="http://www.w3.org/2000/svg"
   xmlns:svg="http://www.w3.org/2000/svg">
  <sodipodi:namedview
     id="namedview49"
     pagecolor="#ffffff"
     bordercolor="#111111"
     borderopacity="1"
     inkscape:showpageshadow="0"
     inkscape:pageopacity="0"
     inkscape:pagecheckerboard="1"
     inkscape:deskcolor="#d1d1d1"
     showgrid="false"
     inkscape:zoom="6.6190619"
     inkscape:cx="98.730003"
     inkscape:cy="28.553895"
     inkscape:window-width="1920"
     inkscape:window-height="1051"
     inkscape:window-x="1920"
     inkscape:window-y="0"
     inkscape:window-maximized="1"
     inkscape:current-layer="Layer_2" />
  <defs
     id="defs7">
    <style
       id="style2">
      .cls-1 {
        fill: none;
      }

      .cls-2 {
        clip-path: url(#clippath);
      }

      .cls-3 {
        fill: #007298;
      }

      .cls-4 {
        fill: #fff;
      }

      .cls-5 {
        fill: #f2a96e;
      }

      .cls-6 {
        fill: #f2dab1;
      }

      .cls-7 {
        fill: #90aba0;
      }

      .cls-8 {
        fill: #e1402c;
      }
    </style>
    <clipPath
       id="clippath">
      <path
         class="cls-1"
         d="M31.31,0h-12.49S-5.77,45.29,1.26,57.04l13.64-4.62c2.49-2.66,5.98-4.35,9.86-4.45,.27-6.07-.48-11.65-.73-14.77-.08-.97,.46-1.41,1.04-1.41s1.12,.44,1.04,1.41c-.28,3.12-1.04,8.7-.77,14.76,4,.05,7.59,1.78,10.12,4.53l13.4,4.55C55.9,45.29,31.31,0,31.31,0Zm-1.2,30.47l-.2,1.15c-.89-.38-2.15-.66-3.58-.76l-.27,.51h-1.99l-.27-.51c-1.41,.11-2.64,.38-3.52,.76l-.25-1.11c-.09-.4-.02-.81,.18-1.16l1.75-2.98c-.04-.23-.08-.44-.11-.65-.34-2.18-.79-5.47,.43-9.22,1.07-3.31,2.85-4.87,2.85-4.87h.03s4.95,4.92,2.91,14.76l1.82,2.96c.2,.33,.28,.73,.21,1.11Z"
         id="path4" />
    </clipPath>
  </defs>
  <g
     class="cls-2"
     clip-path="url(#clippath)"
     id="g21">
    <g
       id="g19">
      <rect
         class="cls-8"
         x="-5.5599999"
         width="71.25"
         height="11.5"
         id="rect9"
         y="0" />
      <rect
         class="cls-5"
         x="-5.5599999"
         y="11.5"
         width="71.25"
         height="11.5"
         id="rect11" />
      <rect
         class="cls-6"
         x="-5.5599999"
         y="23.01"
         width="71.25"
         height="11.5"
         id="rect13" />
      <rect
         class="cls-7"
         x="-5.5599999"
         y="34.509998"
         width="71.25"
         height="11.5"
         id="rect15" />
      <rect
         class="cls-3"
         x="-5.5599999"
         y="46.02"
         width="71.25"
         height="11.5"
         id="rect17" />
    </g>
  </g>
  <g
     id="g37"
     style="stroke-width:0.2;stroke-dasharray:none;stroke:#000000;stroke-opacity:1">
    <path
       class="cls-4"
       d="m 96.38,23.72 h 2.33 v 8.66 c 0,1.04 -0.11,2.04 -0.34,2.99 -0.23,0.97 -0.63,1.83 -1.17,2.58 -0.55,0.75 -1.28,1.36 -2.17,1.81 -0.89,0.45 -1.98,0.67 -3.26,0.67 -1.28,0 -2.37,-0.23 -3.26,-0.67 -0.89,-0.45 -1.62,-1.06 -2.17,-1.81 -0.12,-0.17 -0.24,-0.35 -0.35,-0.53 -0.11,0.18 -0.22,0.36 -0.35,0.53 -0.55,0.75 -1.28,1.36 -2.17,1.81 -0.89,0.45 -1.98,0.67 -3.26,0.67 -1.28,0 -2.37,-0.23 -3.26,-0.67 -0.89,-0.45 -1.62,-1.06 -2.17,-1.81 -0.55,-0.74 -0.94,-1.61 -1.17,-2.58 -0.23,-0.95 -0.34,-1.95 -0.34,-2.99 v -8.66 h 2.33 v 8.21 c 0,0.65 0.06,1.36 0.18,2.11 0.11,0.72 0.34,1.41 0.67,2.03 0.32,0.61 0.79,1.11 1.38,1.51 0.59,0.39 1.39,0.59 2.38,0.59 0.99,0 1.79,-0.2 2.38,-0.59 0.59,-0.39 1.06,-0.9 1.38,-1.51 0.33,-0.62 0.56,-1.3 0.67,-2.03 0.11,-0.69 0.16,-1.35 0.17,-1.97 v -8.35 h 2.34 v 8.35 c 0,0.62 0.06,1.28 0.17,1.97 0.11,0.72 0.34,1.41 0.67,2.03 0.32,0.61 0.79,1.11 1.38,1.51 0.59,0.39 1.39,0.59 2.38,0.59 0.99,0 1.79,-0.2 2.38,-0.59 0.59,-0.39 1.06,-0.9 1.38,-1.51 0.33,-0.62 0.56,-1.3 0.67,-2.03 0.12,-0.74 0.18,-1.45 0.18,-2.11 v -8.21 z"
       id="path23"
       style="stroke-width:0.2;stroke-dasharray:none;stroke:#000000;stroke-opacity:1" />
    <path
       class="cls-4"
       d="m 117.38,28.27 c 0.32,0.9 0.49,1.83 0.49,2.76 v 1.62 h -13.23 c 0.02,0.39 0.1,0.86 0.24,1.42 0.16,0.64 0.47,1.28 0.91,1.9 0.44,0.61 1.03,1.14 1.77,1.58 0.73,0.43 1.69,0.66 2.85,0.66 1.01,0 2,-0.25 2.95,-0.73 0.94,-0.48 1.67,-1.15 2.17,-1.98 l 0.12,-0.19 1.8,1.52 -0.09,0.14 c -0.81,1.23 -1.83,2.13 -3.03,2.66 -1.19,0.53 -2.52,0.8 -3.95,0.8 -1.22,0 -2.35,-0.21 -3.35,-0.63 -1,-0.42 -1.87,-1.01 -2.59,-1.77 -0.72,-0.76 -1.28,-1.66 -1.66,-2.69 -0.38,-1.03 -0.58,-2.18 -0.58,-3.43 0,-1.25 0.2,-2.33 0.59,-3.34 0.39,-1.02 0.96,-1.92 1.68,-2.67 0.72,-0.75 1.58,-1.35 2.55,-1.78 0.98,-0.43 2.07,-0.65 3.25,-0.65 1.18,0 2.33,0.22 3.27,0.65 0.94,0.43 1.74,1.01 2.38,1.72 0.64,0.71 1.13,1.53 1.45,2.43 z m -1.94,2.16 c -0.02,-0.6 -0.16,-1.18 -0.4,-1.71 -0.27,-0.59 -0.65,-1.12 -1.12,-1.56 -0.47,-0.45 -1.04,-0.81 -1.68,-1.07 -0.65,-0.26 -1.34,-0.39 -2.06,-0.39 -1.07,0 -1.97,0.22 -2.68,0.65 -0.71,0.44 -1.29,0.95 -1.7,1.52 -0.42,0.57 -0.72,1.14 -0.89,1.67 -0.14,0.44 -0.21,0.72 -0.24,0.89 h 10.78 z"
       id="path25"
       style="stroke-width:0.2;stroke-dasharray:none;stroke:#000000;stroke-opacity:1" />
    <path
       class="cls-4"
       d="m 130.64,33.04 c 0.4,0.57 0.61,1.35 0.61,2.34 0,0.78 -0.15,1.49 -0.45,2.12 -0.3,0.63 -0.71,1.17 -1.21,1.6 -0.5,0.43 -1.11,0.76 -1.8,0.99 -0.68,0.23 -1.42,0.34 -2.2,0.34 -1.03,0 -2.02,-0.18 -2.94,-0.55 -0.93,-0.37 -1.69,-0.94 -2.24,-1.71 l -0.08,-0.11 2,-1.72 0.09,0.14 c 0.37,0.56 0.85,0.97 1.43,1.24 0.9,0.41 1.86,0.54 2.86,0.24 0.36,-0.11 0.68,-0.27 0.97,-0.48 0.29,-0.21 0.53,-0.48 0.71,-0.78 0.18,-0.3 0.27,-0.66 0.27,-1.07 0,-0.57 -0.17,-0.99 -0.53,-1.29 -0.37,-0.31 -0.85,-0.57 -1.4,-0.78 -0.58,-0.22 -1.2,-0.43 -1.87,-0.62 -0.69,-0.2 -1.33,-0.49 -1.92,-0.86 -0.59,-0.37 -1.09,-0.87 -1.49,-1.49 -0.4,-0.63 -0.61,-1.48 -0.61,-2.53 0,-0.48 0.11,-0.99 0.31,-1.53 0.21,-0.54 0.54,-1.04 0.99,-1.48 0.45,-0.45 1.02,-0.82 1.71,-1.12 0.69,-0.3 1.54,-0.45 2.51,-0.45 0.88,0 1.73,0.12 2.53,0.36 0.82,0.25 1.54,0.75 2.15,1.5 l 0.09,0.11 -1.98,1.8 -0.09,-0.15 c -0.25,-0.39 -0.62,-0.72 -1.09,-0.96 -0.47,-0.24 -1.01,-0.36 -1.61,-0.36 -0.6,0 -1.06,0.07 -1.44,0.22 -0.38,0.15 -0.68,0.34 -0.9,0.57 -0.22,0.23 -0.38,0.48 -0.47,0.74 -0.09,0.27 -0.14,0.51 -0.14,0.74 0,0.63 0.18,1.11 0.53,1.44 0.37,0.34 0.84,0.63 1.4,0.84 0.56,0.22 1.19,0.42 1.87,0.6 0.69,0.18 1.33,0.44 1.92,0.76 0.59,0.33 1.09,0.78 1.49,1.34 z"
       id="path27"
       style="stroke-width:0.2;stroke-dasharray:none;stroke:#000000;stroke-opacity:1" />
    <path
       class="cls-4"
       d="m 150.55,31.95 c 0,4.68 -3.8,8.48 -8.48,8.48 -4.68,0 -8.48,-3.8 -8.48,-8.48 0,-4.68 3.8,-8.48 8.48,-8.48 4.68,0 8.48,3.8 8.48,8.48 z m -2.25,0 c 0,-3.43 -2.79,-6.22 -6.23,-6.22 -3.44,0 -6.23,2.79 -6.23,6.22 0,3.43 2.79,6.23 6.23,6.23 3.44,0 6.23,-2.79 6.23,-6.23 z"
       id="path29"
       style="stroke-width:0.2;stroke-dasharray:none;stroke:#000000;stroke-opacity:1" />
    <path
       class="cls-4"
       d="m 155.33,40.19 h -2.43 v -8.66 c 0,-1.04 0.12,-2.04 0.36,-2.99 0.24,-0.97 0.65,-1.83 1.22,-2.58 0.57,-0.75 1.33,-1.36 2.25,-1.81 0.92,-0.45 2.06,-0.67 3.39,-0.67 1.33,0 2.47,0.23 3.39,0.67 0.92,0.45 1.68,1.06 2.25,1.81 0.13,0.17 0.25,0.35 0.36,0.53 0.11,-0.18 0.23,-0.36 0.36,-0.53 0.57,-0.75 1.33,-1.36 2.25,-1.81 0.92,-0.45 2.06,-0.67 3.39,-0.67 1.33,0 2.47,0.23 3.39,0.67 0.92,0.45 1.68,1.06 2.25,1.81 0.57,0.74 0.98,1.61 1.22,2.58 0.24,0.95 0.36,1.95 0.36,2.99 v 8.66 h -2.43 v -8.21 c 0,-0.65 -0.06,-1.36 -0.18,-2.11 -0.12,-0.72 -0.35,-1.41 -0.7,-2.03 -0.34,-0.61 -0.82,-1.11 -1.44,-1.51 -0.61,-0.39 -1.44,-0.59 -2.48,-0.59 -1.04,0 -1.87,0.2 -2.48,0.59 -0.62,0.39 -1.1,0.9 -1.44,1.51 -0.35,0.62 -0.58,1.3 -0.7,2.03 -0.11,0.69 -0.17,1.35 -0.18,1.97 v 8.35 h -2.43 v -8.35 c 0,-0.62 -0.06,-1.28 -0.18,-1.97 -0.12,-0.72 -0.35,-1.41 -0.7,-2.03 -0.34,-0.61 -0.82,-1.11 -1.44,-1.51 -0.61,-0.39 -1.44,-0.59 -2.48,-0.59 -1.04,0 -1.87,0.2 -2.48,0.59 -0.62,0.39 -1.1,0.9 -1.44,1.51 -0.34,0.62 -0.58,1.3 -0.7,2.03 -0.12,0.74 -0.18,1.45 -0.18,2.11 v 8.21 z"
       id="path31"
       style="stroke-width:0.2;stroke-dasharray:none;stroke:#000000;stroke-opacity:1" />
    <path
       class="cls-4"
       d="m 196.97,28.27 c 0.32,0.9 0.49,1.83 0.49,2.76 v 1.62 h -13.23 c 0.02,0.39 0.1,0.86 0.24,1.42 0.16,0.64 0.47,1.28 0.91,1.9 0.44,0.61 1.03,1.14 1.77,1.58 0.73,0.43 1.69,0.66 2.85,0.66 1.01,0 2,-0.25 2.95,-0.73 0.94,-0.48 1.67,-1.15 2.18,-1.98 l 0.12,-0.19 1.8,1.52 -0.09,0.14 c -0.81,1.23 -1.83,2.13 -3.03,2.66 -1.19,0.53 -2.52,0.8 -3.95,0.8 -1.23,0 -2.35,-0.21 -3.35,-0.63 -1,-0.42 -1.87,-1.01 -2.59,-1.77 -0.72,-0.76 -1.28,-1.66 -1.66,-2.69 -0.38,-1.03 -0.57,-2.18 -0.57,-3.43 0,-1.25 0.2,-2.33 0.59,-3.34 0.39,-1.02 0.96,-1.92 1.68,-2.67 0.72,-0.75 1.58,-1.35 2.55,-1.78 0.98,-0.43 2.07,-0.65 3.25,-0.65 1.18,0 2.33,0.22 3.27,0.65 0.94,0.43 1.74,1.01 2.38,1.72 0.64,0.71 1.13,1.53 1.45,2.43 z m -1.94,2.16 c -0.02,-0.6 -0.16,-1.18 -0.4,-1.71 -0.27,-0.59 -0.65,-1.12 -1.12,-1.56 -0.47,-0.45 -1.03,-0.81 -1.68,-1.07 -0.65,-0.26 -1.34,-0.39 -2.06,-0.39 -1.07,0 -1.97,0.22 -2.68,0.65 -0.71,0.44 -1.29,0.95 -1.7,1.52 -0.42,0.57 -0.72,1.14 -0.89,1.67 -0.15,0.44 -0.21,0.72 -0.24,0.89 h 10.78 z"
       id="path33"
       style="stroke-width:0.2;stroke-dasharray:none;stroke:#000000;stroke-opacity:1" />
    <path
       class="cls-4"
       d="m 55.98,35.63 c -0.32,-0.9 -0.49,-1.83 -0.49,-2.76 v -1.62 h 13.23 c -0.02,-0.39 -0.1,-0.86 -0.24,-1.42 -0.16,-0.64 -0.47,-1.28 -0.91,-1.9 -0.44,-0.61 -1.03,-1.14 -1.77,-1.58 -0.73,-0.43 -1.69,-0.66 -2.85,-0.66 -1.01,0 -2,0.25 -2.95,0.73 -0.94,0.48 -1.67,1.15 -2.18,1.98 l -0.12,0.19 -1.8,-1.52 0.09,-0.14 c 0.81,-1.23 1.83,-2.13 3.03,-2.66 1.19,-0.53 2.52,-0.8 3.95,-0.8 1.23,0 2.35,0.21 3.35,0.63 1,0.42 1.87,1.01 2.59,1.77 0.72,0.76 1.28,1.66 1.66,2.69 0.38,1.03 0.57,2.18 0.57,3.43 0,1.25 -0.2,2.33 -0.59,3.34 -0.39,1.02 -0.96,1.92 -1.68,2.67 -0.72,0.75 -1.58,1.35 -2.55,1.78 -0.98,0.43 -2.07,0.65 -3.25,0.65 -1.18,0 -2.33,-0.22 -3.27,-0.65 -0.94,-0.43 -1.74,-1.01 -2.38,-1.72 -0.64,-0.71 -1.13,-1.53 -1.45,-2.43 z m 1.94,-2.16 c 0.02,0.6 0.16,1.18 0.4,1.71 0.27,0.59 0.65,1.12 1.12,1.56 0.47,0.45 1.03,0.81 1.68,1.07 0.65,0.26 1.34,0.39 2.06,0.39 1.07,0 1.97,-0.22 2.68,-0.65 0.71,-0.44 1.29,-0.95 1.7,-1.52 0.42,-0.57 0.72,-1.14 0.89,-1.67 0.15,-0.44 0.21,-0.72 0.24,-0.89 H 57.91 Z"
       id="path35"
       style="stroke-width:0.2;stroke-dasharray:none;stroke:#000000;stroke-opacity:1" />
  </g>
  <g
     id="g43">
    <path
       class="cls-4"
       d="M 29.93,29.56 28.1,26.58 C 30.15,16.67 25.17,11.72 25.17,11.72 h -0.03 c 0,0 -1.79,1.58 -2.86,4.91 -1.22,3.78 -0.78,7.08 -0.43,9.28 0.03,0.21 0.07,0.42 0.11,0.65 l -1.76,3 c -0.21,0.35 -0.27,0.77 -0.18,1.17 l 0.25,1.12 c 0.89,-0.38 2.13,-0.66 3.55,-0.77 l 0.27,0.51 h 2 l 0.27,-0.52 c 1.44,0.1 2.7,0.38 3.6,0.76 l 0.2,-1.15 c 0.07,-0.39 -0.01,-0.78 -0.22,-1.12 z"
       id="path39" />
    <path
       class="cls-4"
       d="m 25.16,48.29 c 0.06,0 0.12,0 0.19,0 -0.27,-6.05 0.49,-11.55 0.77,-14.63 0.09,-0.97 -0.47,-1.4 -1.04,-1.4 -0.57,0 -1.12,0.44 -1.04,1.4 0.25,3.08 1.01,8.59 0.76,14.64 0.12,0 0.25,0 0.37,0 z"
       id="path41" />
  </g>
</svg>
