<svg xmlns="http://www.w3.org/2000/svg" viewBox="0 0 65.52 65.52"><title>b13_bildmarke_schwarz</title><path d="M47.56,38.9c0-4.35-2.59-6.81-6.9-7.71a6.77,6.77,0,0,0,4.44-6.5c0-5.67-4-8.3-10.89-8.3H30.33v6.08h2.79c2.68,0,4.13.86,4.13,3s-1.54,3-4.22,3h-2.7v6.17H34.8c3,0,4.63,1,4.63,3.32,0,2.08-1.36,3.17-4.26,3.17h-7V16.39h0l-7.59,6.07V47.25H36.3c7.26,0,11.26-3.17,11.26-8.35m11.16-6.14A25.86,25.86,0,0,1,54.2,47.4v6.7H47.53A26,26,0,1,1,58.72,32.76m6.8,0A32.76,32.76,0,1,0,32.76,65.52,32.76,32.76,0,0,0,65.52,32.76" fill="#151414"/></svg>