<?xml version="1.0" encoding="UTF-8" standalone="no"?>
<svg
   version="1.1"
   x="0px"
   y="0px"
   viewBox="0 0 155 38"
   xml:space="preserve"
   id="svg38"
   sodipodi:docname="Check24 Logo.svg"
   inkscape:version="1.1.2 (b8e25be833, 2022-02-05)"
   xmlns:inkscape="http://www.inkscape.org/namespaces/inkscape"
   xmlns:sodipodi="http://sodipodi.sourceforge.net/DTD/sodipodi-0.dtd"
   xmlns="http://www.w3.org/2000/svg"
   xmlns:svg="http://www.w3.org/2000/svg"
   xmlns:rdf="http://www.w3.org/1999/02/22-rdf-syntax-ns#"
   xmlns:cc="http://creativecommons.org/ns#"
   xmlns:dc="http://purl.org/dc/elements/1.1/"><title
   id="title840">Check24 (2020)</title><defs
   id="defs42" /><sodipodi:namedview
   id="namedview40"
   pagecolor="#ffffff"
   bordercolor="#666666"
   borderopacity="1.0"
   inkscape:pageshadow="2"
   inkscape:pageopacity="0.0"
   inkscape:pagecheckerboard="0"
   showgrid="false"
   inkscape:zoom="9.0580645"
   inkscape:cx="49.734687"
   inkscape:cy="17.608618"
   inkscape:window-width="1920"
   inkscape:window-height="1001"
   inkscape:window-x="-9"
   inkscape:window-y="-9"
   inkscape:window-maximized="1"
   inkscape:current-layer="svg38" />
        <g
   id="g4"
   style="fill:#063773;fill-opacity:1">
            <path
   fill="#FFFFFF"
   d="M9.592,24.68H9.585c-2.542,0-5.176-0.059-6.906-0.799c-0.898-0.38-1.52-0.891-1.959-1.605                 C0.236,21.49,0,20.468,0,19.164c0-0.996,0.144-2.162,0.419-3.479C0.485,15.383,1.985,8.373,2.083,8                 c0.4-1.461,0.898-2.667,1.533-3.676c1.094-1.736,2.555-2.857,4.593-3.525C9.906,0.249,12.068,0,15.207,0h0.026                 c1.651,0,3.007,0.118,4.147,0.354c1.343,0.282,2.372,0.747,3.053,1.369c0.511,0.472,0.839,1.042,0.976,1.703                 c0.072,0.334,0.105,0.708,0.105,1.107c0,0.93-0.19,1.907-0.341,2.686c-0.02,0.118-0.046,0.223-0.066,0.334l-0.007,0.033h-6.08                 l0.007-0.046c0,0,0.02-0.183,0.026-0.269c0-0.007,0.026-0.249,0.026-0.603c0-0.531-0.249-0.943-0.753-1.264                 c-0.4-0.229-0.917-0.308-1.409-0.367c-0.524-0.066-1.114-0.072-1.671-0.072c-1.022,0-1.795,0.079-2.431,0.256                 c-0.504,0.138-0.93,0.341-1.284,0.609c-0.504,0.38-0.898,0.93-1.199,1.677c-0.282,0.694-0.485,1.527-0.708,2.555l-0.819,3.931                 c-0.269,1.264-0.459,2.221-0.459,3.047c0,0.478,0.066,0.852,0.203,1.186c0.216,0.531,0.675,0.943,1.297,1.166                 c0.596,0.216,1.356,0.314,2.457,0.314c0.734,0,1.337-0.013,1.887-0.079c0.95-0.111,1.631-0.4,2.142-0.898                 c0.557-0.537,0.93-1.337,1.179-2.509l0.085-0.4h6.014v0.039c0,0.046-0.341,1.625-0.518,2.26c-0.183,0.662-0.38,1.219-0.609,1.717                 c-0.583,1.271-1.396,2.254-2.562,3.086c-1.127,0.786-2.326,1.271-3.774,1.527c-1.245,0.216-2.522,0.236-3.938,0.236                 C10.214,24.687,9.664,24.68,9.592,24.68z"
   id="path2"
   style="fill:#063773;fill-opacity:1" />
        </g>
        <g
   id="g8"
   style="fill:#063773;fill-opacity:1">
            <path
   fill="#FFFFFF"
   d="M76.963,24.68L76.963,24.68c-2.549,0-5.182-0.059-6.912-0.799c-0.898-0.38-1.52-0.891-1.959-1.605         c-0.485-0.786-0.721-1.808-0.721-3.112c0-0.996,0.144-2.162,0.419-3.479c0.066-0.301,1.566-7.312,1.664-7.685         c0.393-1.461,0.898-2.667,1.533-3.676c1.094-1.736,2.555-2.857,4.593-3.525C77.278,0.249,79.44,0,82.578,0h0.026         c1.651,0,3.007,0.118,4.147,0.354c1.343,0.282,2.372,0.747,3.053,1.369c0.511,0.472,0.839,1.042,0.976,1.703         c0.072,0.334,0.105,0.708,0.105,1.107c0,0.93-0.19,1.907-0.341,2.693c-0.02,0.111-0.046,0.223-0.066,0.334l-0.007,0.033h-6.08         l0.007-0.046c0,0,0.02-0.183,0.026-0.269c0-0.007,0.026-0.249,0.026-0.603c0-0.531-0.249-0.943-0.753-1.264         c-0.4-0.229-0.917-0.308-1.409-0.367c-0.524-0.066-1.114-0.072-1.671-0.072c-1.022,0-1.795,0.079-2.431,0.256         c-0.504,0.138-0.924,0.341-1.284,0.609c-0.504,0.38-0.898,0.93-1.199,1.677c-0.282,0.694-0.485,1.527-0.708,2.555l-0.832,3.918         c-0.269,1.264-0.459,2.221-0.459,3.047c0,0.478,0.066,0.852,0.203,1.186c0.216,0.531,0.675,0.943,1.297,1.166         c0.596,0.216,1.356,0.314,2.457,0.314c0.734,0,1.337-0.013,1.887-0.079c0.95-0.111,1.631-0.4,2.142-0.898         c0.557-0.537,0.93-1.337,1.179-2.509l0.085-0.4h6.014v0.039c0,0.046-0.341,1.625-0.518,2.26c-0.183,0.662-0.38,1.219-0.609,1.717         c-0.583,1.278-1.396,2.254-2.562,3.086c-1.127,0.786-2.326,1.271-3.774,1.527C80.265,24.661,77.035,24.68,76.963,24.68z"
   id="path6"
   style="fill:#063773;fill-opacity:1" />
        </g>
        <g
   id="g12"
   style="fill:#063773;fill-opacity:1">
            <path
   fill="#FFFFFF"
   d="M63.912,24.484H46.419l0.013-0.046l4.894-23.023c0.085-0.426,0.242-0.714,0.498-0.911         c0.262-0.203,0.622-0.301,1.101-0.301h14.761c0.367,0,0.629,0.085,0.786,0.242c0.118,0.124,0.183,0.301,0.183,0.518v0.02         c0,0.092-0.013,0.177-0.033,0.269l-0.76,3.59H56.437l-0.989,4.763h10.725l-0.976,4.488H54.471l-1.219,5.746h11.662L63.912,24.484z"
   id="path10"
   style="fill:#063773;fill-opacity:1" />
        </g>
        <g
   id="g16"
   style="fill:#063773;fill-opacity:1">
            <path
   fill="#FFFFFF"
   d="M95.282,24.484h-5.831l0.013-0.046L94.338,1.5c0.118-0.498,0.301-0.839,0.577-1.048         c0.216-0.164,0.491-0.242,0.845-0.242h3.453c0.373,0,0.649,0.085,0.826,0.256c0.138,0.131,0.21,0.328,0.21,0.557         c0,0.072-0.007,0.144-0.02,0.216L95.282,24.484z"
   id="path14"
   style="fill:#063773;fill-opacity:1" />
        </g>
        <g
   id="g20"
   style="fill:#063773;fill-opacity:1">
            <path
   fill="#FFFFFF"
   d="M111.34,24.484h-7.351l-0.013-0.026l-5.444-12.592l0.02-0.02l9.415-10.221         c0.583-0.636,0.924-0.957,1.232-1.147c0.328-0.203,0.616-0.275,1.088-0.275h4.743c0.223,0,0.36,0.072,0.439,0.138         c0.046,0.039,0.079,0.079,0.098,0.118c0.013,0.026,0.026,0.059,0.026,0.098h0.007l-0.007,0.079         c-0.007,0.098-0.059,0.262-0.256,0.478l-10.162,10.922L111.34,24.484z"
   id="path18"
   style="fill:#063773;fill-opacity:1" />
        </g>
        <g
   id="g24"
   style="fill:#063773;fill-opacity:1">
            <path
   fill="#FFFFFF"
   d="M37.594,24.484h-0.046l0.013-0.046l2.07-9.808H30.02l-2.097,9.854h-5.831l0.013-0.046         c0.197-0.93,4.829-22.8,4.861-22.924c0.17-0.721,0.459-0.97,0.688-1.101c0.249-0.144,0.596-0.21,1.088-0.21h3.151         c0.164,0,0.432,0.072,0.636,0.216c0.111,0.079,0.197,0.17,0.249,0.269c0.066,0.118,0.098,0.249,0.098,0.4         c0,0.066-0.007,0.138-0.02,0.21c-0.026,0.138-1.625,7.613-1.782,8.353h9.618c0.78-3.689,1.717-8.085,1.73-8.137         c0.17-0.721,0.459-0.97,0.688-1.101c0.249-0.144,0.596-0.21,1.088-0.21h3.151c0.164,0,0.432,0.072,0.636,0.216         c0.111,0.079,0.197,0.17,0.249,0.269c0.066,0.118,0.098,0.249,0.098,0.4c0,0.066-0.007,0.138-0.02,0.21         c-0.026,0.144-4.724,22.21-4.927,23.154l-0.007,0.033L37.594,24.484z"
   id="path22"
   style="fill:#063773;fill-opacity:1" />
        </g>
        <g
   id="g28"
   style="fill:#063773;fill-opacity:1">
            <path
   fill="#FFFFFF"
   d="M128.538,4.947c0.452,0.118,0.806,0.341,0.996,0.714l0,0c0.124,0.249,0.183,0.537,0.183,0.884l0,0         c0,0.354-0.059,0.767-0.157,1.251l0,0c-0.138,0.636-0.269,1.16-0.472,1.612l0,0c-0.203,0.452-0.478,0.826-0.878,1.14l0,0         c-0.799,0.629-2.044,1.009-4.252,1.507l0,0c-2.922,0.649-4.933,1.186-6.355,1.893l0,0c-1.422,0.708-2.247,1.553-2.87,2.889l0,0         c-0.413,0.891-0.727,2.005-1.029,3.413l0,0l-0.826,4.193h18.915l0.884-4.246h-13.162c0,0,0.203-1.022,0.373-1.396l0,0         c0.216-0.485,0.498-0.845,0.865-1.114l0,0c0.367-0.269,0.812-0.446,1.35-0.596l0,0c1.081-0.301,2.575-0.504,4.77-1.061l0,0         c2.706-0.701,4.534-1.468,5.824-2.706l0,0c1.291-1.238,2.077-2.981,2.653-5.713l0,0c0.216-1.009,0.334-2.005,0.334-2.758l0,0         c0-1.081-0.21-1.913-0.583-2.549l0,0c-0.373-0.636-0.911-1.094-1.618-1.435l0,0c-1.402-0.675-3.466-0.832-5.91-0.832l0,0         c-3.112,0-5.562,0.321-7.384,1.441l0,0c-1.821,1.114-3.086,3.145-3.793,6.453l0,0l-0.197,0.937h5.752l0.223-1.035         c0.223-0.989,0.432-1.664,0.806-2.142l0,0c0.373-0.485,0.917-0.714,1.651-0.806l0,0c0.498-0.066,1.094-0.079,1.834-0.079l0,0         c0.118,0,0.229,0,0.341,0l0,0C127.523,4.796,128.086,4.829,128.538,4.947L128.538,4.947z"
   id="path26"
   style="fill:#063773;fill-opacity:1" />
        </g>
        <g
   id="g32"
   style="fill:#063773;fill-opacity:1">
            <path
   fill="#FFFFFF"
   d="M144.407,2.608c-0.668,0.694-6.283,6.565-8.583,8.976c-0.459,0.491-0.95,1.035-1.166,1.487         c-0.177,0.328-0.406,1.238-0.524,1.887c-0.242,1.356-0.426,2.594-0.537,3.099c-0.026,0.131-0.039,0.249-0.039,0.36         c0,0.419,0.177,0.694,0.413,0.898c0.229,0.197,0.544,0.288,0.852,0.288c0.282,0,11.144,0,11.144,0l-1.029,4.842l5.864-0.557         l0.911-4.291h2.097l0.911-4.291h-2.097c0,0,2.097-9.788,2.162-10.155c0.721-3.964-0.924-5.123-4.632-5.123         C149.209,0.046,147.067-0.151,144.407,2.608z M146.87,15.318h-8.419L148.469,4.94h0.609L146.87,15.318z"
   id="path30"
   style="fill:#063773;fill-opacity:1" />
        </g>
        <g
   id="g36"
   style="fill:#063773;fill-opacity:1">
            <path
   fill="#FFFFFF"
   d="M131.277,38L131.277,38c-3.787,0-7.423-1.009-10.516-2.922c-3.04-1.874-4.809-4.088-5.648-5.34l-1.107,2.85         c-0.098,0.262-0.373,0.426-0.668,0.38c-0.288-0.052-0.504-0.301-0.504-0.59l-0.059-5.589v-0.007c0-0.157,0.066-0.308,0.177-0.413         c0.118-0.111,0.269-0.177,0.432-0.177h5.687h0.007c0.282,0.007,0.524,0.216,0.577,0.491c0.007,0.039,0.013,0.072,0.013,0.111         c0,0.249-0.157,0.472-0.387,0.563l-2.771,1.074c2.431,2.169,7.443,5.654,14.479,5.654c0.603,0,1.212-0.026,1.815-0.079         c2.968-0.249,5.962-0.983,8.661-2.11c2.365-0.989,4.449-2.247,6.041-3.649l-2.863-0.845c-0.256-0.072-0.439-0.308-0.439-0.577         c0-0.02,0-0.039,0-0.059c0.026-0.288,0.262-0.518,0.55-0.544l5.549-0.504c0.026,0,0.046-0.007,0.059-0.007         c0.144,0,0.282,0.052,0.387,0.138c0.124,0.105,0.203,0.256,0.216,0.413c0.459,5.458,0.459,5.458,0.459,5.477         c0,0.269-0.183,0.511-0.446,0.583c-0.052,0.013-0.105,0.02-0.157,0.02c-0.236,0-0.446-0.131-0.55-0.334l-1.343-2.568         c-1.074,1.454-2.948,3.505-5.883,5.287c-2.974,1.808-6.296,2.883-9.873,3.184l-0.36,0.033l0,0C132.306,37.98,131.788,38,131.277,38         z"
   id="path34"
   style="fill:#063773;fill-opacity:1" />
        </g>
    <metadata
   id="metadata838"><rdf:RDF><cc:Work
       rdf:about=""><dc:title>Check24 (2020)</dc:title></cc:Work></rdf:RDF></metadata></svg>
