<?xml version="1.0" encoding="UTF-8"?>
<svg id="Calque_2" data-name="Calque 2" xmlns="http://www.w3.org/2000/svg" viewBox="0 0 402.73 147.8">
  <defs>
    <style>
      .cls-1 {
        fill: #403e46;
      }

      .cls-1, .cls-2 {
        stroke-width: 0px;
      }

      .cls-2 {
        fill: #ecb14d;
      }
    </style>
  </defs>
  <g id="Calque_1-2" data-name="Calque 1">
    <g>
      <g>
        <path class="cls-1" d="m23,36.79c4.9,0,8.9-1.9,11.9-5.8l6.4,6.5c-5,5.7-11,8.5-17.8,8.5s-12.5-2.2-16.9-6.5S0,29.69,0,23.1,2.3,11,6.8,6.6C11.3,2.2,16.8,0,23.4,0c7.3,0,13.4,2.8,18.3,8.3l-6.2,7c-3.1-3.9-7-5.8-11.7-5.8-3.7,0-6.9,1.2-9.6,3.7-2.6,2.4-4,5.7-4,9.9s1.2,7.4,3.7,9.9c2.5,2.6,5.5,3.8,9.1,3.8Z"/>
        <path class="cls-1" d="m49.09,45.59V1.2h9.9v35.59h18.9v8.8h-28.79Z"/>
        <path class="cls-1" d="m117.28,1.2v8.8h-22.1v9.2h19.9v8.5h-19.9v9.1h22.8v8.8h-32.69V1.2h31.99Z"/>
        <path class="cls-1" d="m143.17,29.49l11.3-28.29h10.7l-17.8,44.39h-8.4L121.08,1.2h10.7l11.4,28.29Z"/>
        <path class="cls-1" d="m202.56,1.2v8.8h-22.2v9.2h19.9v8.5h-19.9v9.1h22.8v8.8h-32.69V1.2h32.09Z"/>
        <path class="cls-1" d="m248.05,15.9c0,7.1-2.8,11.7-8.5,13.8l11.3,15.9h-12.2l-9.9-14.2h-6.9v14.2h-9.9V1.2h16.8c6.9,0,11.8,1.2,14.8,3.5,3.1,2.3,4.5,6.1,4.5,11.2Zm-11.9,5.3c1.2-1.1,1.8-2.8,1.8-5.2s-.6-4-1.9-4.9c-1.3-.9-3.5-1.3-6.7-1.3h-7.4v13.2h7.2c3.4-.1,5.7-.7,7-1.8Z"/>
        <path class="cls-1" d="m306.64,45.59l-4.1-9.6h-18.6l-4.1,9.6h-10.6L288.45,1.2h9.6l19.2,44.39h-10.6Zm-13.4-31.19l-5.6,12.9h11.1l-5.5-12.9Z"/>
        <path class="cls-1" d="m351.24,23h10v15.8c-4.4,4.9-10.5,7.4-18.3,7.4-6.5,0-12-2.2-16.4-6.5-4.4-4.3-6.6-9.8-6.6-16.4s2.3-12.1,6.8-16.5c4.5-4.4,10-6.6,16.3-6.6s11.9,2.1,16.6,6.3l-5.1,7.4c-2-1.7-3.8-2.9-5.5-3.6s-3.5-1-5.4-1c-3.8,0-6.9,1.3-9.5,3.8-2.6,2.6-3.9,5.9-3.9,10.1s1.2,7.6,3.7,10.1c2.5,2.5,5.4,3.8,8.9,3.8s6.3-.7,8.6-2v-12.1h-.2Z"/>
        <path class="cls-1" d="m402.03,1.2v8.8h-22.1v9.2h19.9v8.5h-19.9v9.1h22.8v8.8h-32.69V1.2h31.99Z"/>
      </g>
      <g>
        <g>
          <path class="cls-1" d="m105.09,100.18v-12.62h2.11v1.9c.89-1.48,2.16-2.22,3.8-2.22,1.91,0,3.17.77,3.8,2.3.41-.62.98-1.16,1.7-1.62.72-.45,1.52-.68,2.39-.68,1.19,0,2.19.37,2.98,1.1.79.73,1.19,1.76,1.19,3.1v8.74h-2.25v-8.39c0-.89-.23-1.56-.71-2.02-.47-.45-1.05-.68-1.72-.68-.86,0-1.6.39-2.23,1.16-.63.77-.95,1.8-.95,3.06v6.87h-2.25v-8.39c0-.89-.24-1.56-.72-2.02-.48-.45-1.06-.68-1.74-.68-.86,0-1.6.39-2.22,1.16-.62.77-.94,1.8-.94,3.06v6.87h-2.25Z"/>
          <path class="cls-1" d="m139.15,100.18h-2.17c-.2-.43-.29-.98-.29-1.66-1.07,1.32-2.5,1.98-4.3,1.98-1.19,0-2.18-.32-2.95-.97-.78-.65-1.16-1.51-1.16-2.58,0-2.89,2.8-4.33,8.39-4.33v-.77c0-.89-.23-1.6-.69-2.11s-1.16-.77-2.09-.77-1.6.22-2.09.67c-.48.45-.74,1.03-.78,1.76l-2.25-.32c.14-1.21.7-2.15,1.67-2.82.97-.67,2.14-1,3.52-1,1.51,0,2.71.39,3.58,1.18.87.78,1.31,1.85,1.31,3.21v6.84c0,.61.1,1.18.29,1.71Zm-6.1-1.42c.96,0,1.81-.32,2.53-.95.72-.63,1.08-1.47,1.08-2.5v-1.09c-4.08,0-6.12.85-6.12,2.57,0,.62.23,1.11.68,1.46.45.35,1.06.52,1.83.52Z"/>
          <path class="cls-1" d="m153.48,100.18l-4.73-6.6-1.47,1.36v5.24h-2.25v-18.71h2.25v11.12l5.43-5.03h2.65l-4.95,4.6,5.8,8.02h-2.73Z"/>
          <path class="cls-1" d="m168.88,96.49l1.98.8c-1.07,2.14-2.8,3.21-5.19,3.21-1.85,0-3.32-.62-4.4-1.86s-1.62-2.84-1.62-4.8.54-3.51,1.62-4.75c1.08-1.24,2.52-1.86,4.32-1.86s3.22.61,4.21,1.82c.99,1.21,1.48,2.7,1.48,4.46v.75h-9.33c.03,1.3.37,2.38,1,3.22.63.85,1.55,1.27,2.74,1.27.84,0,1.49-.18,1.97-.55s.88-.94,1.22-1.72Zm-.92-6.54c-.63-.65-1.44-.98-2.42-.98s-1.78.33-2.41,1c-.62.67-.99,1.54-1.1,2.61h6.95c-.05-1.11-.4-1.98-1.03-2.63Z"/>
        </g>
        <g>
          <path class="cls-1" d="m184.6,83.12c0-.41.14-.76.41-1.04.28-.28.63-.43,1.06-.43s.78.14,1.06.43c.28.29.41.63.41,1.04s-.14.73-.41,1.02c-.28.29-.63.43-1.06.43s-.78-.14-1.06-.43-.41-.62-.41-1.02Zm.35,17.06v-12.62h2.25v12.62h-2.25Z"/>
          <path class="cls-1" d="m198.96,98.23l.72,1.76c-.59.34-1.35.51-2.27.51-1.05,0-1.86-.3-2.42-.89-.56-.6-.84-1.33-.84-2.21v-8.13h-2.14v-1.71h2.14v-3.61l2.25-1.01v4.62h2.94v1.71h-2.94v7.91c0,.96.44,1.44,1.31,1.44.45,0,.86-.13,1.26-.4Z"/>
        </g>
        <g>
          <path class="cls-1" d="m211.81,93.82c0-1.03.16-1.97.48-2.81.32-.84.77-1.55,1.35-2.13.58-.58,1.27-1.02,2.09-1.34.81-.31,1.72-.47,2.72-.47.78,0,1.47.09,2.07.28.6.19,1.11.45,1.55.77.44.33.81.72,1.12,1.16.31.45.57.93.79,1.44l-3.48,1.28c-.14-.66-.41-1.15-.79-1.48-.38-.33-.86-.49-1.43-.49-.46,0-.86.11-1.19.33-.33.22-.59.51-.79.87-.2.36-.34.76-.43,1.2s-.13.9-.13,1.36c0,.43.04.87.12,1.31s.22.85.41,1.22c.2.37.46.66.79.88.33.22.74.33,1.24.33.59,0,1.05-.17,1.38-.49.33-.33.59-.76.79-1.3l3.56,1.34c-.27.46-.57.9-.9,1.32-.33.42-.72.79-1.18,1.1s-.97.56-1.56.75c-.59.19-1.27.28-2.03.28-.96,0-1.85-.15-2.66-.45s-1.5-.74-2.07-1.32c-.57-.58-1.02-1.28-1.34-2.11-.32-.83-.48-1.78-.48-2.85Z"/>
          <path class="cls-1" d="m228.36,81.47h3.85v18.71h-3.85v-18.71Z"/>
          <path class="cls-1" d="m249.27,97.53c-.52.95-1.25,1.68-2.21,2.22-.95.53-2.12.8-3.49.8-1,0-1.9-.16-2.71-.47-.81-.31-1.5-.76-2.07-1.34-.57-.58-1.02-1.29-1.34-2.13-.32-.84-.48-1.78-.48-2.83s.16-1.97.48-2.81c.32-.84.77-1.54,1.35-2.11.58-.57,1.26-1.01,2.05-1.32.79-.31,1.65-.47,2.59-.47,1.07,0,2,.18,2.79.55.79.37,1.45.86,1.97,1.47.52.62.91,1.33,1.16,2.15.26.82.39,1.69.39,2.62v.94h-8.88c.02.37.07.73.16,1.08.09.35.24.65.44.92.21.27.48.49.82.65.34.17.75.25,1.23.25.68,0,1.2-.16,1.58-.47s.66-.66.85-1.06l3.32,1.34Zm-5.83-7.73c-.8,0-1.41.25-1.83.74-.42.49-.65,1.14-.71,1.94h5c-.03-.89-.28-1.56-.73-2.01s-1.03-.67-1.72-.67Z"/>
          <path class="cls-1" d="m252.83,87.45h4.06c.39,1.32.77,2.57,1.12,3.74.16.5.32,1.01.47,1.52.15.52.3,1.01.44,1.5.14.48.27.93.39,1.34.11.41.22.75.31,1.01h.05c.07-.27.17-.61.28-1.01.12-.41.25-.86.39-1.34.14-.48.29-.98.45-1.5s.31-1.03.45-1.52c.34-1.18.71-2.42,1.12-3.74h3.82l-4.44,12.73h-4.44l-4.49-12.73Z"/>
          <path class="cls-1" d="m281.75,97.53c-.52.95-1.25,1.68-2.21,2.22-.95.53-2.12.8-3.49.8-1,0-1.9-.16-2.71-.47s-1.5-.76-2.07-1.34c-.57-.58-1.02-1.29-1.34-2.13-.32-.84-.48-1.78-.48-2.83s.16-1.97.48-2.81c.32-.84.77-1.54,1.35-2.11.58-.57,1.26-1.01,2.05-1.32.79-.31,1.65-.47,2.59-.47,1.07,0,2,.18,2.79.55.79.37,1.45.86,1.97,1.47.52.62.91,1.33,1.16,2.15.26.82.39,1.69.39,2.62v.94h-8.88c.02.37.07.73.16,1.08.09.35.24.65.44.92.21.27.48.49.82.65.34.17.75.25,1.23.25.68,0,1.2-.16,1.58-.47s.66-.66.85-1.06l3.32,1.34Zm-5.83-7.73c-.8,0-1.41.25-1.83.74-.42.49-.65,1.14-.71,1.94h5c-.03-.89-.28-1.56-.73-2.01-.45-.45-1.03-.67-1.72-.67Z"/>
          <path class="cls-1" d="m295.17,90.9c-.21-.16-.46-.27-.74-.33s-.54-.09-.79-.09c-.3,0-.63.06-.99.17-.36.12-.68.32-.98.61s-.54.68-.73,1.16c-.2.48-.29,1.09-.29,1.82v5.94h-3.85v-12.73h3.61v2.14c.39-.85.89-1.49,1.5-1.9s1.38-.61,2.33-.61c.25,0,.51.02.79.05.28.04.56.12.84.24l-.69,3.53Z"/>
        </g>
      </g>
      <path class="cls-2" d="m188.32,135.5c6.81,0,12.32,5.51,12.35,12.31h0c.02-6.8,5.54-12.31,12.35-12.31-6.82,0-12.35-5.53-12.35-12.35,0,6.82-5.53,12.35-12.35,12.35Z"/>
    </g>
  </g>
</svg>