<?xml version="1.0" encoding="UTF-8" standalone="no"?>
<!-- Created with Inkscape (http://www.inkscape.org/) -->

<svg
   width="20.840698mm"
   height="6.2229996mm"
   viewBox="0 0 20.840698 6.2229996"
   version="1.1"
   id="svg1343"
   xml:space="preserve"
   xmlns:inkscape="http://www.inkscape.org/namespaces/inkscape"
   xmlns:sodipodi="http://sodipodi.sourceforge.net/DTD/sodipodi-0.dtd"
   xmlns="http://www.w3.org/2000/svg"
   xmlns:svg="http://www.w3.org/2000/svg"><sodipodi:namedview
     id="namedview1345"
     pagecolor="#ffffff"
     bordercolor="#111111"
     borderopacity="1"
     inkscape:showpageshadow="0"
     inkscape:pageopacity="0"
     inkscape:pagecheckerboard="1"
     inkscape:deskcolor="#d1d1d1"
     inkscape:document-units="mm"
     showgrid="false" /><defs
     id="defs1340" /><g
     inkscape:label="Layer 1"
     inkscape:groupmode="layer"
     id="layer1"
     transform="translate(-75.074472,-70.377302)"><g
       id="g1518"
       transform="translate(39.388739,18.455491)"><path
         style="fill:#fdfdfd;stroke-width:0.0254"
         d="m 46.067979,58.125749 10.382251,-0.0064 v -3.09877 c 0,-2.737528 0.0044,-3.098769 0.0381,-3.098769 0.03366,0 0.0381,0.362656 0.0381,3.1115 v 3.1115 l -10.420351,-0.0063 -10.42035,-0.0063 z m -4.964428,-2.093115 c -0.276879,-0.03689 -0.499434,-0.198145 -0.608005,-0.440535 -0.08048,-0.179685 -0.08048,-0.506115 0,-0.6858 0.110346,-0.246354 0.326353,-0.400499 0.618544,-0.441402 0.463894,-0.06494 0.83359,0.132887 0.958321,0.512802 0.04363,0.132898 0.03815,0.438371 -0.01032,0.574556 -0.127673,0.358747 -0.493904,0.542286 -0.95854,0.480379 z m 0.309878,-0.434913 c 0.191282,-0.09558 0.206397,-0.559248 0.02243,-0.688102 -0.07498,-0.05252 -0.247918,-0.05347 -0.321725,-0.0018 -0.08926,0.06252 -0.137587,0.18243 -0.137587,0.341358 0,0.238437 0.106563,0.381366 0.283782,0.380626 0.04928,-2.04e-4 0.118173,-0.01465 0.153098,-0.0321 z m 5.381541,0.437089 c -0.148897,-0.02345 -0.199526,-0.051 -0.29634,-0.161269 -0.05091,-0.05798 -0.08396,-0.128776 -0.09524,-0.204001 -0.05199,-0.346679 0.130236,-0.51058 0.623442,-0.560754 0.247278,-0.02516 0.353049,-0.122489 0.237364,-0.218427 -0.06348,-0.05264 -0.349583,-0.03859 -0.515864,0.02534 -0.07634,0.02935 -0.146775,0.04496 -0.156522,0.03468 -0.0097,-0.01027 -0.04654,-0.09022 -0.08176,-0.177651 l -0.06404,-0.158972 0.0685,-0.03542 c 0.227337,-0.117561 0.698813,-0.161634 0.943821,-0.08823 0.144369,0.04325 0.291679,0.184734 0.327553,0.31459 0.01544,0.05588 0.02813,0.275908 0.02821,0.48895 1.01e-4,0.290798 0.0081,0.388314 0.03189,0.391219 0.01746,0.0021 0.04874,0.005 0.06951,0.0064 0.04501,0.003 0.09156,0.264279 0.05381,0.30203 -0.03333,0.03333 -0.236502,0.05274 -0.34299,0.03276 -0.04922,-0.0092 -0.122886,-0.05018 -0.163692,-0.09098 -0.07277,-0.07277 -0.07504,-0.07325 -0.118399,-0.02535 -0.08961,0.09902 -0.34518,0.157223 -0.549244,0.125083 z m 0.45411,-0.4187 c 0.0652,-0.07409 0.08552,-0.307032 0.02475,-0.283712 -0.01782,0.0068 -0.09695,0.02583 -0.175848,0.04221 -0.167939,0.03486 -0.204545,0.06957 -0.193534,0.183499 0.01509,0.156107 0.226927,0.191758 0.344634,0.058 z m 1.50495,0.430258 c -0.02096,-0.0035 -0.08063,-0.01332 -0.132603,-0.02179 -0.120273,-0.0196 -0.242562,-0.122218 -0.302254,-0.25363 -0.03902,-0.0859 -0.04672,-0.169986 -0.04719,-0.515401 l -5.57e-4,-0.41275 h -0.127 -0.127 V 54.666389 54.48998 l 0.12065,-0.0077 0.12065,-0.0077 0.0075,-0.17145 0.0075,-0.17145 h 0.252839 0.25284 v 0.1778 0.1778 h 0.2032 0.2032 v 0.1778 0.1778 h -0.2032 -0.2032 v 0.35249 c 0,0.280886 0.0077,0.358854 0.03775,0.38382 0.03665,0.03042 0.163577,0.02567 0.242289,-0.0091 0.05481,-0.02419 0.217943,0.303116 0.17617,0.353449 -0.05565,0.06706 -0.356569,0.143833 -0.481609,0.122876 z m 3.845658,-0.01203 c -0.286797,-0.03558 -0.506261,-0.18548 -0.623546,-0.425903 -0.08312,-0.170386 -0.08251,-0.519482 0.0012,-0.707907 0.06631,-0.149194 0.237648,-0.321239 0.378637,-0.380195 0.219774,-0.0919 0.59187,-0.08455 0.788128,0.01558 0.238184,0.121513 0.385088,0.385687 0.385088,0.692496 v 0.14779 h -0.5334 c -0.491282,0 -0.533355,0.0035 -0.532835,0.04445 7.06e-4,0.05557 0.07076,0.143814 0.143815,0.181177 0.129116,0.06603 0.428449,0.01631 0.54684,-0.09083 0.05054,-0.04574 0.03775,-0.05294 0.266053,0.149856 l 0.106372,0.09449 -0.08097,0.06837 c -0.04454,0.0376 -0.138045,0.09489 -0.207799,0.1273 -0.112819,0.05242 -0.172606,0.06598 -0.419274,0.09506 -0.03493,0.0041 -0.133179,-0.0012 -0.218342,-0.01172 z m 0.436959,-1.00312 c -0.0085,-0.0221 -0.01542,-0.05122 -0.01542,-0.06471 0,-0.01349 -0.03024,-0.05257 -0.06721,-0.08682 -0.05419,-0.05022 -0.09393,-0.06229 -0.205154,-0.06229 -0.118599,0 -0.148357,0.01041 -0.212191,0.07425 -0.04084,0.04084 -0.07425,0.09799 -0.07425,0.127 0,0.05038 0.01329,0.05275 0.294817,0.05275 0.2584,0 0.292913,-0.005 0.2794,-0.04018 z m -15.077618,0.04018 v -0.9398 h 0.762 0.762 v 0.2286 0.2286 h -0.4953 -0.4953 v 0.1524 0.1524 h 0.4191 0.4191 v 0.2032 0.2032 h -0.4191 -0.4191 v 0.3556 0.3556 h -0.2667 -0.2667 z m 1.7526,-0.0762 v -1.016 h 0.254 0.254 v 1.016 1.016 h -0.254 -0.254 z m 2.8702,1.005833 c 0,-0.0066 -0.08486,-0.318436 -0.188584,-0.693038 -0.103721,-0.374602 -0.1964,-0.712528 -0.205953,-0.750945 l -0.01737,-0.06985 h 0.278001 0.278 l 0.07095,0.40005 c 0.03902,0.220027 0.07905,0.415339 0.08896,0.434026 0.01017,0.01918 0.06773,-0.152257 0.132179,-0.3937 l 0.114165,-0.427676 0.205959,-0.0074 0.205959,-0.0074 0.02264,0.08355 c 0.01245,0.04595 0.06069,0.232144 0.107199,0.413754 0.0465,0.18161 0.09255,0.339479 0.102318,0.35082 0.0098,0.01134 0.04817,-0.142964 0.08534,-0.3429 0.03717,-0.199936 0.07395,-0.394953 0.08173,-0.43337 l 0.01415,-0.06985 h 0.280099 c 0.223093,0 0.277452,0.0069 0.267093,0.03389 -0.0072,0.01864 -0.08327,0.284389 -0.169153,0.59055 -0.08588,0.306161 -0.178891,0.633809 -0.206687,0.728106 l -0.05054,0.17145 h -0.251945 -0.251946 l -0.02473,-0.09525 c -0.0136,-0.05239 -0.06163,-0.238125 -0.106712,-0.41275 -0.04509,-0.174625 -0.08982,-0.326634 -0.09941,-0.337797 -0.0096,-0.01116 -0.0687,0.171717 -0.131355,0.4064 l -0.113921,0.426697 -0.258212,0.0072 c -0.142016,0.004 -0.258212,0.0019 -0.258212,-0.0047 z m 2.1336,-0.751833 v -0.762 h 0.254 0.254 v 0.06372 0.06372 l 0.14103,-0.07959 c 0.263004,-0.14843 0.573032,-0.09567 0.723007,0.123029 0.0624,0.091 0.06314,0.09856 0.07066,0.722547 l 0.0076,0.630582 h -0.255242 -0.255242 v -0.51926 c 0,-0.507794 -0.0012,-0.520132 -0.05645,-0.5588 -0.06686,-0.04683 -0.219036,-0.05068 -0.27595,-0.007 -0.08807,0.06762 -0.0994,0.137542 -0.0994,0.613472 v 0.47157 h -0.254 -0.254 z m 4.800601,0 v -0.762 h 0.254 0.254 v 0.762 0.762 h -0.254 -0.254 z m 1.284891,0.740146 c -0.01458,-0.02359 -0.573691,-1.479113 -0.573691,-1.493476 0,-0.0048 0.125239,-0.0087 0.278309,-0.0087 h 0.278309 l 0.07552,0.24765 c 0.04154,0.136208 0.100663,0.333375 0.131387,0.43815 0.03072,0.104775 0.06442,0.199972 0.07489,0.211549 0.01906,0.02109 0.05268,-0.07916 0.205084,-0.611599 l 0.08179,-0.28575 h 0.278272 c 0.211594,0 0.275617,0.0076 0.26719,0.03175 -0.0061,0.01746 -0.135905,0.360245 -0.288467,0.761739 l -0.277386,0.72999 -0.258851,2.61e-4 c -0.142368,1.53e-4 -0.264929,-0.0096 -0.272358,-0.02159 z M 49.51603,54.144299 v -0.1651 h 0.254 0.254 v 0.1651 0.1651 h -0.254 -0.254 z"
         id="path1534" /><path
         style="fill:#f2ced1;stroke-width:0.0254"
         d="m 41.180067,56.044648 c 0.01834,-0.0073 0.04024,-0.0064 0.04868,0.002 0.0084,0.0084 -0.0066,0.01444 -0.03334,0.01334 -0.02959,-0.0012 -0.03561,-0.0072 -0.01535,-0.01535 z m 0.127,0 c 0.01833,-0.0073 0.04024,-0.0064 0.04868,0.002 0.0084,0.0084 -0.0066,0.01444 -0.03334,0.01334 -0.02959,-0.0012 -0.03561,-0.0072 -0.01535,-0.01535 z m 7.5438,0 c 0.01834,-0.0073 0.04024,-0.0064 0.04868,0.002 0.0084,0.0084 -0.0066,0.01444 -0.03334,0.01334 -0.02959,-0.0012 -0.03561,-0.0072 -0.01535,-0.01535 z m 3.8354,0 c 0.01834,-0.0073 0.04024,-0.0064 0.04868,0.002 0.0084,0.0084 -0.0066,0.01444 -0.03334,0.01334 -0.02959,-0.0012 -0.03561,-0.0072 -0.01535,-0.01535 z m 0.127,0 c 0.01834,-0.0073 0.04024,-0.0064 0.04868,0.002 0.0084,0.0084 -0.0066,0.01444 -0.03334,0.01334 -0.02959,-0.0012 -0.03561,-0.0072 -0.01535,-0.01535 z m -6.639286,-0.554149 c 2.1e-5,-0.29337 0.0037,-0.409906 0.0082,-0.25897 0.0045,0.150937 0.0045,0.390967 -2.5e-5,0.5334 -0.0045,0.142434 -0.0082,0.01894 -0.0082,-0.27443 z m -4.072746,-0.179917 c 0.0012,-0.02959 0.0072,-0.03561 0.01534,-0.01534 0.0073,0.01834 0.0064,0.04024 -0.002,0.04868 -0.0084,0.0084 -0.01444,-0.0066 -0.01334,-0.03334 z m 11.209682,-0.651933 -0.04839,-0.05715 0.05715,0.04839 c 0.03143,0.02661 0.05715,0.05233 0.05715,0.05715 0,0.02033 -0.02044,0.0053 -0.06591,-0.04839 z m -12.13085,-0.214201 c 0.01834,-0.0073 0.04024,-0.0064 0.04868,0.002 0.0084,0.0084 -0.0066,0.01444 -0.03334,0.01334 -0.02959,-0.0012 -0.03561,-0.0072 -0.01535,-0.01535 z m 0.1524,0 c 0.01834,-0.0073 0.04024,-0.0064 0.04868,0.002 0.0084,0.0084 -0.0066,0.01444 -0.03334,0.01334 -0.02959,-0.0012 -0.03561,-0.0072 -0.01535,-0.01535 z m 5.842,0 c 0.01834,-0.0073 0.04024,-0.0064 0.04868,0.002 0.0084,0.0084 -0.0066,0.01444 -0.03334,0.01334 -0.02959,-0.0012 -0.03561,-0.0072 -0.01535,-0.01535 z m 5.6134,0 c 0.01834,-0.0073 0.04024,-0.0064 0.04868,0.002 0.0084,0.0084 -0.0066,0.01444 -0.03334,0.01334 -0.02959,-0.0012 -0.03561,-0.0072 -0.01535,-0.01535 z M 38.333679,54.1126 c 0.213043,-0.0042 0.561658,-0.0042 0.7747,0 0.213043,0.0042 0.03874,0.0077 -0.38735,0.0077 -0.426085,0 -0.600392,-0.0035 -0.38735,-0.0077 z m 10.058401,2.73e-4 c 0.07334,-0.0051 0.193357,-0.0051 0.2667,0 0.07334,0.0051 0.01333,0.0093 -0.13335,0.0093 -0.146685,0 -0.206693,-0.0042 -0.13335,-0.0093 z"
         id="path1532" /><path
         style="fill:#edbcc0;stroke-width:0.0254"
         d="m 40.899079,58.100349 c 2.853373,-0.0036 7.522528,-0.0036 10.375901,0 2.853372,0.0036 0.518795,0.0065 -5.187951,0.0065 -5.706745,0 -8.041322,-0.0029 -5.18795,-0.0065 z m -1.201262,-3.10515 c 0,-0.565785 0.0033,-0.797242 0.0074,-0.51435 0.0041,0.282893 0.0041,0.745807 0,1.0287 -0.0041,0.282893 -0.0074,0.05143 -0.0074,-0.51435 z m 0.924972,0.81915 c -0.03159,-0.04029 -0.0307,-0.04118 0.0096,-0.0096 0.04231,0.03318 0.05577,0.05404 0.03486,0.05404 -0.0053,0 -0.02528,-0.02 -0.04445,-0.04445 z m 6.423091,-0.962972 c 0.01746,-0.007 0.04604,-0.007 0.0635,0 0.01746,0.007 0.0032,0.01281 -0.03175,0.01281 -0.03493,0 -0.04921,-0.0058 -0.03175,-0.01281 z m 1.0414,-0.0011 c 0.03143,-0.0061 0.08287,-0.0061 0.1143,0 0.03143,0.0061 0.0057,0.01101 -0.05715,0.01101 -0.06287,0 -0.08858,-0.005 -0.05715,-0.01101 z m 0.7874,-6.73e-4 c 0.05937,-0.0053 0.156527,-0.0053 0.2159,0 0.05937,0.0053 0.01079,0.0097 -0.10795,0.0097 -0.118745,0 -0.167323,-0.0044 -0.10795,-0.0097 z M 43.137838,54.47971 c 0.01117,-0.01111 0.110666,-0.01672 0.221101,-0.01249 l 0.20079,0.0077 -0.2211,0.01249 c -0.121605,0.0069 -0.211961,0.0034 -0.200791,-0.0077 z m -0.829059,-0.01128 c 0.08033,-0.005 0.211773,-0.005 0.2921,0 0.08033,0.005 0.01461,0.0092 -0.14605,0.0092 -0.160655,0 -0.226377,-0.0041 -0.14605,-0.0092 z m 1.778,0 c 0.08033,-0.005 0.211773,-0.005 0.2921,0 0.08033,0.005 0.01461,0.0092 -0.14605,0.0092 -0.160655,0 -0.226377,-0.0041 -0.14605,-0.0092 z m 0.7493,5e-5 c 0.07334,-0.0051 0.193358,-0.0051 0.2667,0 0.07334,0.0051 0.01334,0.0093 -0.13335,0.0093 -0.146685,0 -0.206692,-0.0042 -0.13335,-0.0093 z m 3.23885,5.01e-4 c 0.03861,-0.0058 0.09576,-0.0057 0.127,3.45e-4 0.03124,0.006 -3.51e-4,0.01081 -0.0702,0.01062 -0.06985,-2.03e-4 -0.09541,-0.0051 -0.0568,-0.01096 z m 0.825822,-4.04e-4 c 0.05974,-0.0054 0.151182,-0.0053 0.2032,1.78e-4 0.05202,0.0055 0.0031,0.0098 -0.108621,0.0098 -0.11176,-1.01e-4 -0.154321,-0.0046 -0.09458,-0.0099 z m 0.735929,-1.02e-4 c 0.07334,-0.0051 0.193357,-0.0051 0.2667,0 0.07334,0.0051 0.01334,0.0093 -0.13335,0.0093 -0.146685,0 -0.206693,-0.0042 -0.13335,-0.0093 z m 0.7239,-5e-5 c 0.08033,-0.005 0.211772,-0.005 0.2921,0 0.08033,0.005 0.01461,0.0092 -0.14605,0.0092 -0.160655,0 -0.226378,-0.0041 -0.14605,-0.0092 z m 1.131295,-5.1e-5 c 0.08786,-0.005 0.22502,-0.0049 0.3048,1.01e-4 0.07978,0.005 0.0079,0.0091 -0.159745,0.009 -0.16764,-5.1e-5 -0.232915,-0.0042 -0.145055,-0.0091 z"
         id="path1530" /><path
         style="fill:#e69ea6;stroke-width:0.0254"
         d="m 38.093307,56.017801 c 0.08084,-0.0051 0.206567,-0.005 0.279399,1.02e-4 0.07283,0.0051 0.0067,0.0092 -0.146977,0.0092 -0.15367,-5.1e-5 -0.21326,-0.0042 -0.132422,-0.0093 z m 1.738972,7.6e-5 c 0.07334,-0.0051 0.193358,-0.0051 0.2667,0 0.07334,0.0051 0.01333,0.0093 -0.13335,0.0093 -0.146685,0 -0.206692,-0.0042 -0.13335,-0.0093 z m 2.8702,0 c 0.07334,-0.0051 0.193358,-0.0051 0.2667,0 0.07334,0.0051 0.01334,0.0093 -0.13335,0.0093 -0.146685,0 -0.206692,-0.0042 -0.13335,-0.0093 z m 0.94615,0.0023 c 0.212579,-0.01874 0.451567,-0.02019 0.44066,-0.0027 -0.0065,0.01048 -0.128341,0.01713 -0.270709,0.01478 -0.142368,-0.0023 -0.218846,-0.0078 -0.169951,-0.01211 z m 1.18745,-0.0023 c 0.07334,-0.0051 0.193358,-0.0051 0.2667,0 0.07334,0.0051 0.01334,0.0093 -0.13335,0.0093 -0.146685,0 -0.206692,-0.0042 -0.13335,-0.0093 z m 0.9398,0 c 0.07334,-0.0051 0.193358,-0.0051 0.2667,0 0.07334,0.0051 0.01333,0.0093 -0.13335,0.0093 -0.146685,0 -0.206692,-0.0042 -0.13335,-0.0093 z m 3.860801,0 c 0.07334,-0.0051 0.193357,-0.0051 0.2667,0 0.07334,0.0051 0.01334,0.0093 -0.13335,0.0093 -0.146685,0 -0.206693,-0.0042 -0.13335,-0.0093 z m 1.2954,0 c 0.07334,-0.0051 0.193357,-0.0051 0.2667,0 0.07334,0.0051 0.01333,0.0093 -0.13335,0.0093 -0.146685,0 -0.206693,-0.0042 -0.13335,-0.0093 z m -2.676029,-0.806778 c 5.1e-5,-0.19558 0.004,-0.272232 0.0089,-0.170339 0.0048,0.101894 0.0048,0.261914 -7.6e-5,0.3556 -0.0049,0.09369 -0.0088,0.01032 -0.0088,-0.185261 z m 5.278131,0.0254 c 5.18e-4,-0.04191 0.0062,-0.05598 0.01265,-0.03127 0.0064,0.02471 0.006,0.059 -9.43e-4,0.0762 -0.007,0.0172 -0.01223,-0.003 -0.01171,-0.04493 z m -4.339813,-0.5715 c 0,-0.104775 0.0045,-0.147638 0.01,-0.09525 0.0055,0.05239 0.0055,0.138112 0,0.1905 -0.0055,0.05239 -0.01,0.0095 -0.01,-0.09525 z m -1.535779,-0.06985 c -0.03159,-0.04029 -0.0307,-0.04118 0.0096,-0.0096 0.04231,0.03318 0.05577,0.05404 0.03486,0.05404 -0.0053,0 -0.02528,-0.02 -0.04445,-0.04445 z m -8.166284,-0.24765 c 7.6e-5,-0.1397 0.0043,-0.193609 0.0095,-0.119799 0.0051,0.07381 0.0051,0.188111 -1.27e-4,0.254 -0.0052,0.06589 -0.0094,0.0055 -0.0094,-0.134201 z m 8.762263,-0.0635 c 0,-0.104775 0.0045,-0.147638 0.01,-0.09525 0.0055,0.05239 0.0055,0.138112 0,0.1905 -0.0055,0.05239 -0.01,0.0095 -0.01,-0.09525 z"
         id="path1528" /><path
         style="fill:#dd7a84;stroke-width:0.0254"
         d="m 35.710728,55.020599 c 0,-1.697355 0.003,-2.391727 0.0067,-1.54305 0.0037,0.848677 0.0037,2.237422 0,3.0861 -0.0037,0.848677 -0.0067,0.154305 -0.0067,-1.54305 z m 11.995552,1.024578 c 0.01746,-0.007 0.04604,-0.007 0.0635,0 0.01746,0.007 0.0032,0.01281 -0.03175,0.01281 -0.03493,0 -0.04921,-0.0058 -0.03175,-0.01281 z m -9.203829,-0.376878 c 5.1e-5,-0.19558 0.004,-0.272232 0.0089,-0.170339 0.0048,0.101894 0.0048,0.261914 -7.6e-5,0.3556 -0.0049,0.09369 -0.0088,0.01032 -0.0088,-0.185261 z m 6.198853,-0.4191 c 0,-0.426085 0.0035,-0.600393 0.0077,-0.38735 0.0042,0.213042 0.0042,0.561658 0,0.7747 -0.0042,0.213043 -0.0077,0.03873 -0.0077,-0.38735 z m 4.8006,0 c 0,-0.426085 0.0035,-0.600393 0.0077,-0.38735 0.0042,0.213042 0.0042,0.561658 0,0.7747 -0.0042,0.213043 -0.0077,0.03873 -0.0077,-0.38735 z m -2.226493,0.1524 c -0.0062,-0.04191 -0.0017,-0.0762 0.0098,-0.0762 0.01155,0 0.021,0.03429 0.021,0.0762 0,0.04191 -0.0044,0.0762 -0.0098,0.0762 -0.0054,0 -0.01485,-0.03429 -0.021,-0.0762 z m 6.255824,-0.06562 c 0.0012,-0.02959 0.0072,-0.03561 0.01535,-0.01535 0.0073,0.01834 0.0064,0.04024 -0.002,0.04868 -0.0084,0.0084 -0.01444,-0.0066 -0.01334,-0.03334 z m -14.195559,-0.232204 -0.005,-0.208921 -0.41275,-0.007 -0.41275,-0.007 -0.0019,-0.1397 -0.0019,-0.1397 0.0095,0.13335 0.0095,0.13335 h 0.40593 c 0.316392,0 0.408818,0.0075 0.419025,0.03413 0.0072,0.01877 0.0091,0.118783 0.0042,0.22225 l -0.0088,0.188123 z m 13.260104,-0.05115 c 0.08033,-0.005 0.211772,-0.005 0.2921,0 0.08033,0.005 0.0146,0.0092 -0.14605,0.0092 -0.160655,0 -0.226378,-0.0041 -0.14605,-0.0092 z m -10.702991,-0.38128 c -0.03159,-0.04029 -0.0307,-0.04118 0.0096,-0.0096 0.04231,0.03318 0.05576,0.05404 0.03486,0.05404 -0.0053,0 -0.02528,-0.02 -0.04445,-0.04445 z m 7.606175,-0.52705 c 1.02e-4,-0.09779 0.0047,-0.134683 0.0102,-0.08198 0.0055,0.0527 0.0054,0.132709 -2.04e-4,0.1778 -0.0056,0.04509 -0.01011,0.002 -0.01,-0.09582 z"
         id="path1526" /><path
         style="fill:#d6606d;stroke-width:0.0254"
         d="m 45.233972,55.553999 c 0,-0.258445 0.0038,-0.364172 0.0084,-0.23495 0.0046,0.129222 0.0046,0.340677 0,0.4699 -0.0046,0.129222 -0.0084,0.02349 -0.0084,-0.23495 z m 4.801332,-0.3048 c 0,-0.426085 0.0035,-0.600393 0.0077,-0.38735 0.0042,0.213042 0.0042,0.561658 0,0.7747 -0.0042,0.213043 -0.0077,0.03873 -0.0077,-0.38735 z m -2.211053,0.0635 c 5.1e-5,-0.19558 0.004,-0.272232 0.0089,-0.170339 0.0048,0.101894 0.0048,0.261914 -7.7e-5,0.3556 -0.0049,0.09369 -0.0088,0.01032 -0.0088,-0.185261 z m -1.45287,0.254 c 5.18e-4,-0.04191 0.0062,-0.05598 0.01265,-0.03127 0.0064,0.02471 0.006,0.059 -9.42e-4,0.0762 -0.007,0.0172 -0.01223,-0.003 -0.01171,-0.04493 z m -7.656702,-0.260197 c 0.115253,-0.0047 0.303848,-0.0047 0.4191,0 0.115253,0.0047 0.02096,0.0086 -0.20955,0.0086 -0.230505,0 -0.324802,-0.0039 -0.20955,-0.0086 z m 13.165556,-0.04672 c 0.0012,-0.02959 0.0072,-0.03561 0.01535,-0.01535 0.0073,0.01834 0.0064,0.04024 -0.002,0.04868 -0.0084,0.0084 -0.01444,-0.0066 -0.01334,-0.03334 z M 45.22744,54.537999 c 0,-0.03493 0.0058,-0.04921 0.01281,-0.03175 0.007,0.01746 0.007,0.04604 0,0.0635 -0.007,0.01746 -0.01281,0.0032 -0.01281,-0.03175 z m 4.801392,-0.386461 -0.0048,-0.170562 -0.26035,-0.0082 -0.26035,-0.0082 0.261147,-0.0054 c 0.299193,-0.0061 0.292358,-0.01138 0.278428,0.213387 l -0.0093,0.149556 z M 39.832279,53.960473 c 0.07334,-0.0051 0.193358,-0.0051 0.2667,0 0.07334,0.0051 0.01333,0.0093 -0.13335,0.0093 -0.146685,0 -0.206692,-0.0042 -0.13335,-0.0093 z m 1.0668,-2.032324 c 2.853373,-0.0036 7.522528,-0.0036 10.375901,0 2.853372,0.0036 0.518795,0.0065 -5.187951,0.0065 -5.706745,0 -8.041322,-0.0029 -5.18795,-0.0065 z"
         id="path1524" /><path
         style="fill:#cc3747;stroke-width:0.0254"
         d="m 52.091717,55.827049 -0.04839,-0.05715 0.05715,0.04839 c 0.05371,0.04547 0.06871,0.06591 0.04839,0.06591 -0.0048,0 -0.03054,-0.02572 -0.05715,-0.05715 z m 1.423273,-0.03921 c 0.01024,-0.01807 0.004,-0.05236 -0.01393,-0.0762 -0.0293,-0.03902 -0.02773,-0.03892 0.01577,9.33e-4 0.04037,0.03698 0.04266,0.04952 0.01393,0.0762 -0.02769,0.02571 -0.03076,0.02553 -0.01578,-9.33e-4 z m -0.777923,-0.174988 c 0.01834,-0.0073 0.04024,-0.0064 0.04868,0.002 0.0084,0.0084 -0.0066,0.01444 -0.03334,0.01334 -0.02959,-0.0012 -0.03561,-0.0072 -0.01535,-0.01535 z m -0.201677,-0.0779 c -0.0316,-0.04029 -0.0307,-0.04118 0.0096,-0.0096 0.04231,0.03318 0.05577,0.05404 0.03486,0.05404 -0.0053,0 -0.02528,-0.02 -0.04445,-0.04445 z m -3.746011,-0.33655 c 0,-0.188595 0.004,-0.265748 0.0089,-0.17145 0.0049,0.0943 0.0049,0.248602 0,0.3429 -0.0049,0.0943 -0.0089,0.01714 -0.0089,-0.17145 z m 3.090856,-0.01482 c 0.0012,-0.02959 0.0072,-0.03561 0.01535,-0.01535 0.0073,0.01834 0.0064,0.04024 -0.002,0.04868 -0.0084,0.0084 -0.01444,-0.0066 -0.01334,-0.03334 z m 1.442555,-0.537633 c -0.03159,-0.04029 -0.0307,-0.04118 0.0096,-0.0096 0.04231,0.03318 0.05577,0.05404 0.03486,0.05404 -0.0053,0 -0.02528,-0.02 -0.04445,-0.04445 z m -14.55596,-0.05071 c 0.143936,-0.0045 0.372536,-0.0045 0.508,5e-5 0.135465,0.0046 0.0177,0.0083 -0.261701,0.0082 -0.2794,-2.2e-5 -0.390234,-0.0038 -0.246299,-0.0083 z m 10.021139,-0.31124 c 0,-0.104775 0.0045,-0.147638 0.01,-0.09525 0.0055,0.05239 0.0055,0.138112 0,0.1905 -0.0055,0.05239 -0.01,0.0095 -0.01,-0.09525 z"
         id="path1522" /><path
         style="fill:#c31124;stroke-width:0.0254"
         d="m 35.723829,55.020599 v -3.0734 h 10.3632 10.363201 v 3.0734 3.0734 h -10.363201 -10.3632 z m 5.944891,0.973794 c 0.160891,-0.07247 0.294732,-0.197103 0.37499,-0.349207 0.06149,-0.116525 0.06822,-0.155613 0.06822,-0.395987 0,-0.240374 -0.0067,-0.279462 -0.06822,-0.395987 -0.07977,-0.151175 -0.212841,-0.275603 -0.37499,-0.350629 -0.09538,-0.04413 -0.164436,-0.05348 -0.394991,-0.05348 -0.342994,10e-6 -0.486774,0.05354 -0.659357,0.245497 -0.136623,0.151958 -0.196025,0.320018 -0.196025,0.554595 0,0.393624 0.187528,0.658839 0.550582,0.778673 0.154235,0.05091 0.554997,0.03174 0.699791,-0.03348 z m -0.57218,-0.450174 c -0.152266,-0.152266 -0.138907,-0.507598 0.02307,-0.613732 0.07399,-0.04848 0.212836,-0.05483 0.290476,-0.01328 0.178479,0.09552 0.181859,0.566646 0.0047,0.661434 -0.0914,0.04892 -0.252363,0.03151 -0.318296,-0.03443 z m 6.062851,0.491262 c 0.05195,-0.01443 0.126888,-0.05352 0.16652,-0.08687 0.06841,-0.05756 0.07352,-0.05829 0.100949,-0.01438 0.04952,0.07929 0.24028,0.136124 0.392904,0.117055 0.201854,-0.02522 0.205372,-0.02978 0.17177,-0.222738 -0.02706,-0.155357 -0.03242,-0.164474 -0.09033,-0.153404 l -0.06157,0.01177 V 55.32961 c 0,-0.552225 -0.0517,-0.699471 -0.288945,-0.822968 -0.08016,-0.04173 -0.163868,-0.05711 -0.356526,-0.06551 -0.273151,-0.01191 -0.460734,0.01861 -0.65408,0.106418 l -0.118782,0.05394 0.07636,0.1905 c 0.042,0.104775 0.0796,0.193776 0.08356,0.19778 0.004,0.004 0.09358,-0.02171 0.199139,-0.05715 0.279898,-0.09396 0.500476,-0.07825 0.500476,0.03565 0,0.07154 -0.0624,0.09682 -0.317182,0.128482 -0.122874,0.01527 -0.264653,0.04499 -0.315063,0.06605 -0.269063,0.112393 -0.354532,0.400805 -0.200167,0.675461 0.105513,0.187734 0.425504,0.276495 0.710973,0.197212 z m -0.194382,-0.388213 c -0.04969,-0.03633 -0.06223,-0.157179 -0.02062,-0.198784 0.01403,-0.01403 0.07546,-0.03646 0.136525,-0.04984 0.06106,-0.01338 0.131022,-0.03039 0.15547,-0.0378 0.03731,-0.0113 0.04445,0.0033 0.04445,0.091 0,0.180887 -0.181831,0.293402 -0.315821,0.195426 z m 2.121046,0.375639 c 0.06186,-0.0215 0.134898,-0.05596 0.162304,-0.07658 0.0488,-0.03671 0.04788,-0.04144 -0.04424,-0.227608 -0.08928,-0.180438 -0.12473,-0.218527 -0.156113,-0.167749 -0.02184,0.03534 -0.149259,0.05151 -0.198454,0.02518 -0.0393,-0.02103 -0.04472,-0.06543 -0.04472,-0.36594 v -0.342006 h 0.2032 0.2032 v -0.2032 -0.2032 h -0.2032 -0.2032 v -0.1778 -0.1778 h -0.2794 -0.2794 v 0.1778 0.1778 h -0.1143 -0.1143 v 0.2032 0.2032 h 0.1143 0.1143 l 1.52e-4,0.37465 c 7.6e-5,0.206057 0.01195,0.417158 0.02638,0.469111 0.03509,0.126352 0.139262,0.245393 0.264531,0.302296 0.128387,0.05832 0.394032,0.0625 0.548977,0.0087 z m 4.03864,-0.01033 c 0.145309,-0.04523 0.429935,-0.212777 0.429935,-0.253093 0,-0.01513 -0.134546,-0.134684 -0.29873,-0.265452 -0.05289,-0.04213 -0.06404,-0.04315 -0.102558,-0.0094 -0.10892,0.09541 -0.228061,0.129568 -0.428613,0.122871 -0.09524,-0.0032 -0.236899,-0.112461 -0.236899,-0.182749 0,-0.04625 0.0252,-0.04854 0.5334,-0.04854 h 0.5334 v -0.13509 c 0,-0.0743 -0.01808,-0.195973 -0.04018,-0.270385 -0.106461,-0.358495 -0.365255,-0.534325 -0.786441,-0.534325 -0.247322,0 -0.419329,0.05952 -0.574055,0.198628 -0.149312,0.134244 -0.209285,0.242869 -0.250914,0.454463 -0.08295,0.421632 0.139287,0.812244 0.530691,0.932761 0.175079,0.05391 0.501351,0.04934 0.690963,-0.0097 z M 52.48783,55.013551 c 0,-0.109675 0.188381,-0.214601 0.329601,-0.183584 0.07096,0.01558 0.203799,0.141114 0.203799,0.192581 0,0.0129 -0.120015,0.02345 -0.2667,0.02345 -0.199488,0 -0.2667,-0.0082 -0.2667,-0.03245 z m -13.970001,0.667448 v -0.3556 h 0.4191 0.4191 v -0.2286 -0.2286 h -0.4191 -0.4191 v -0.127 -0.127 h 0.4953 0.4953 v -0.254 -0.254 h -0.7747 -0.7747 v 0.9652 0.9652 h 0.2794 0.2794 z m 1.7018,-0.6858 v -1.0414 h -0.2667 -0.2667 v 1.0414 1.0414 h 0.2667 0.2667 z m 2.94558,0.83185 c 0.03055,-0.115253 0.08171,-0.306705 0.113693,-0.42545 0.06704,-0.248926 0.04307,-0.285857 0.193763,0.29845 l 0.0868,0.33655 h 0.268521 0.268522 l 0.211869,-0.75565 c 0.116528,-0.415608 0.217004,-0.769937 0.223279,-0.7874 0.0087,-0.02426 -0.06001,-0.03175 -0.291429,-0.03175 h -0.302839 l -0.07289,0.406617 c -0.04009,0.223639 -0.0809,0.39366 -0.09069,0.377825 -0.0098,-0.01583 -0.06152,-0.198812 -0.114969,-0.406616 l -0.09718,-0.377826 H 43.341667 43.121676 L 43.011,54.879279 c -0.06087,0.229614 -0.112669,0.415352 -0.115106,0.41275 -0.0024,-0.0026 -0.03455,-0.170465 -0.07136,-0.37303 -0.03681,-0.202565 -0.07296,-0.388303 -0.08033,-0.41275 -0.01175,-0.03899 -0.04939,-0.04445 -0.306537,-0.04445 h -0.293142 l 0.01689,0.06985 c 0.03877,0.160365 0.401402,1.468411 0.41194,1.4859 0.0063,0.01048 0.129567,0.01905 0.273897,0.01905 h 0.262418 z m 2.08362,-0.290463 c 0,-0.478417 0.0024,-0.502552 0.05523,-0.5588 0.06417,-0.06831 0.210993,-0.07987 0.289168,-0.02278 0.04557,0.03328 0.0499,0.07561 0.05711,0.5588 l 0.0078,0.522791 h 0.265247 0.265248 v -0.6067 -0.606699 l -0.07021,-0.134391 c -0.09246,-0.176983 -0.226985,-0.25241 -0.450184,-0.25241 -0.116873,0 -0.188618,0.01614 -0.281755,0.06339 -0.06873,0.03487 -0.127812,0.06344 -0.131305,0.0635 -0.0035,5.8e-5 -0.0063,-0.02275 -0.0063,-0.05069 0,-0.04772 -0.01693,-0.0508 -0.2794,-0.0508 h -0.2794 v 0.7874 0.7874 h 0.2794 0.2794 z m 4.800601,-0.287387 v -0.7874 h -0.2794 -0.2794 v 0.7874 0.7874 h 0.2794 0.2794 z m 1.4064,0.48895 c 0.334964,-0.867268 0.4732,-1.233809 0.4732,-1.254725 0,-0.01313 -0.128915,-0.02013 -0.296405,-0.01608 l -0.296404,0.0072 -0.127029,0.438988 c -0.06987,0.241444 -0.13495,0.42617 -0.144633,0.410503 -0.0097,-0.01567 -0.07297,-0.216068 -0.14064,-0.445338 l -0.123036,-0.416853 h -0.299526 c -0.16474,0 -0.299527,0.0073 -0.299527,0.0162 0,0.0089 0.133072,0.363243 0.295717,0.7874 l 0.295717,0.771197 h 0.273648 0.273647 z m -1.4064,-1.60655 v -0.1778 h -0.2794 -0.2794 v 0.1778 0.1778 h 0.2794 0.2794 z"
         id="path1520" /></g></g></svg>
