<?xml version="1.0" encoding="utf-8"?>
<!-- Generator: Adobe Illustrator 23.0.3, SVG Export Plug-In . SVG Version: 6.00 Build 0)  -->
<svg version="1.1" id="Ebene_1" xmlns="http://www.w3.org/2000/svg" xmlns:xlink="http://www.w3.org/1999/xlink" x="0px" y="0px"
	 viewBox="0 0 300 93.1" style="enable-background:new 0 0 300 93.1;" xml:space="preserve">
<style type="text/css">
	.st0{fill:#9DC75F;}
	.st1{fill:#3E3C3D;}
</style>
<path class="st0" d="M288.8,3.7c-0.7,0.8-1.3,1.6-2,2.4c-0.7,0.8-1.3,1.7-2,2.6c-1.3,1.9-2.8,3.7-4.1,5.7c-0.7,1.1-1.3,2.1-2,3
	c-0.7,1.1-1.3,2.1-1.9,3.3c-1.3,2.1-2.5,4.5-3.6,6.7c-1.1,2.4-2.1,4.6-3,7c-0.9,2.4-1.9,4.6-2.5,7c-0.8,2.2-1.5,4.5-2,6.6
	c-0.5,2.1-1.1,4.2-1.6,6.1c-0.3,1.1-0.5,2.1-0.8,3.2c43.5-12.3,41.5-10.7,28.2-57C290.6,1.5,289.7,2.5,288.8,3.7"/>
<path class="st0" d="M257.3,45.5c0.9-2.1,1.9-4.5,2.9-6.7c1.1-2.4,2.2-4.6,3.6-7c1.3-2.4,2.6-4.8,4.1-7s2.9-4.5,4.6-6.6
	c0.8-1.1,1.6-2.1,2.4-3.2s1.7-2,2.5-2.9c1.6-2,3.3-3.7,4.9-5.4c0.8-0.8,1.6-1.6,2.2-2.4c0.8-0.8,1.6-1.5,2.2-2.1
	c0.8-0.8,1.6-1.5,2.2-2.1c-44.6,12.7-45.2,10.7-33.6,50.9C256,48.9,256.7,47.2,257.3,45.5"/>
<path class="st1" d="M5,48.4H0.4c-0.1-0.5-0.3-1.2-0.3-1.9C0,45.8,0,45.2,0,44.6c0-1.2,0.1-2.4,0.4-3.6h14v35.2
	c-1.6,0.3-3.2,0.4-4.8,0.4c-1.5,0-3-0.1-4.8-0.4V48.4H5z M3.6,35c-0.3-1.6-0.4-3-0.4-4.6c0-1.5,0.1-2.9,0.4-4.6
	c0.8-0.1,1.6-0.3,2.5-0.3c0.9-0.1,1.7-0.1,2.4-0.1c0.8,0,1.6,0,2.5,0.1c0.9,0.1,1.7,0.1,2.5,0.3c0.1,0.8,0.3,1.6,0.3,2.2
	c0,0.8,0,1.5,0,2.2c0,0.7,0,1.5,0,2.2c0,0.8-0.1,1.6-0.3,2.4c-0.8,0.3-1.6,0.4-2.5,0.4c-0.9,0-1.7,0.1-2.5,0.1s-1.6,0-2.5-0.1
	C5.2,35.3,4.4,35.2,3.6,35"/>
<path class="st1" d="M23.9,41c0.7-0.1,1.3-0.3,1.9-0.3c0.7-0.1,1.3-0.1,2.1-0.1c0.8,0,1.5,0,2,0.1c0.5,0.1,1.2,0.1,1.9,0.3
	c0.1,0.3,0.3,0.5,0.4,0.9c0.1,0.4,0.3,0.9,0.3,1.3c0.1,0.5,0.1,0.9,0.3,1.5c0.1,0.4,0.1,0.8,0.1,1.2c0.4-0.7,1.1-1.3,1.6-2
	c0.7-0.7,1.3-1.3,2.2-1.9c0.8-0.5,1.7-0.9,2.8-1.3c1.1-0.4,2.2-0.5,3.4-0.5c4,0,7,1.1,9,3.3c2,2.1,3,5.6,3,10.3v22.5
	c-1.6,0.3-3.3,0.4-4.9,0.4c-1.6,0-3.2-0.1-4.9-0.4V56.5c0-2.5-0.4-4.4-1.1-5.7c-0.8-1.3-2.1-2-4-2c-0.8,0-1.6,0.1-2.4,0.4
	s-1.6,0.7-2.2,1.3c-0.7,0.7-1.2,1.6-1.6,2.8c-0.4,1.2-0.7,2.8-0.7,4.6v18.5c-1.6,0.3-3.3,0.4-4.9,0.4c-1.6,0-3.2-0.1-4.9-0.4V41
	H23.9z"/>
<path class="st1" d="M63.7,40.9c0.7-0.1,1.3-0.3,1.9-0.3c0.7,0,1.3,0,2.1,0c1.3,0,2.5,0.1,3.8,0.4c0.1,0.3,0.3,0.5,0.4,0.9
	c0.1,0.4,0.3,0.9,0.4,1.5c0.1,0.5,0.3,0.9,0.3,1.5c0.1,0.5,0.1,0.9,0.1,1.2c0.4-0.8,0.9-1.5,1.5-2.1c0.5-0.7,1.3-1.3,2.1-1.9
	c0.8-0.5,1.7-0.9,2.8-1.3c1.1-0.4,2.2-0.5,3.4-0.5c2,0,3.8,0.4,5.4,1.1c1.7,0.8,3.2,1.9,4.5,3.3c1.3,1.5,2.2,3.3,2.9,5.6
	c0.7,2.2,1.1,4.9,1.1,7.9c0,2.9-0.4,5.6-1.3,7.9c-0.9,2.4-2.1,4.4-3.7,6c-1.6,1.6-3.6,2.9-6,3.8c-2.4,0.9-5,1.3-8.1,1.3
	c-0.8,0-1.6,0-2.2-0.1c-0.8-0.1-1.3-0.1-1.9-0.3v15.6c-0.9,0.1-1.7,0.3-2.5,0.3c-0.8,0-1.6,0.1-2.4,0.1c-0.8,0-1.6,0-2.4-0.1
	c-0.8,0-1.6-0.1-2.5-0.3V40.9H63.7z M73.4,68.6c1.2,0.4,2.6,0.5,4.2,0.5c2.8,0,5-0.9,6.5-2.8c1.5-1.9,2.2-4.5,2.2-8.2
	c0-1.5-0.1-2.6-0.4-4c-0.3-1.2-0.7-2.2-1.2-3c-0.5-0.9-1.2-1.6-2.1-2c-0.8-0.5-1.9-0.8-3-0.8c-1.2,0-2.1,0.3-2.9,0.7
	c-0.8,0.4-1.5,1.1-2,1.7c-0.5,0.8-0.9,1.6-1.1,2.6c-0.3,1.1-0.4,2.1-0.4,3.2v12H73.4z"/>
<path class="st1" d="M110.9,60.8c-2.5-0.8-4.5-1.9-6-3.2c-1.5-1.5-2.1-3.6-2.1-6.5c0-3.4,1.2-6.1,3.7-8.1c2.5-2,5.8-2.9,10-2.9
	c1.7,0,3.6,0.1,5.3,0.5c1.7,0.3,3.4,0.8,5.3,1.5c-0.1,1.2-0.3,2.4-0.7,3.7s-0.8,2.4-1.3,3.3c-1.1-0.4-2.2-0.8-3.6-1.2
	c-1.3-0.4-2.6-0.5-4.1-0.5c-1.6,0-2.8,0.3-3.6,0.7c-0.9,0.5-1.3,1.2-1.3,2.2c0,1.1,0.3,1.7,0.9,2.1c0.7,0.4,1.5,0.8,2.6,1.2l3.8,1.2
	c1.3,0.4,2.4,0.8,3.4,1.3c1.1,0.5,1.9,1.2,2.6,2c0.7,0.8,1.3,1.7,1.7,2.9c0.4,1.2,0.7,2.5,0.7,4.1c0,1.7-0.4,3.3-1.1,4.8
	s-1.7,2.8-3,3.8c-1.3,1.1-2.9,1.9-4.9,2.5c-1.9,0.7-4.1,0.9-6.5,0.9c-1.1,0-2.1,0-3-0.1c-0.9-0.1-1.7-0.1-2.6-0.4
	c-0.8-0.1-1.7-0.4-2.5-0.5c-0.8-0.3-1.7-0.5-2.6-0.9c0.1-1.2,0.3-2.5,0.7-3.7c0.4-1.2,0.8-2.5,1.3-3.7c1.5,0.5,2.9,1.1,4.2,1.3
	s2.8,0.4,4.2,0.4c0.7,0,1.3,0,2.1-0.1c0.8-0.1,1.5-0.3,2.1-0.7c0.7-0.3,1.2-0.7,1.6-1.2c0.4-0.5,0.7-1.1,0.7-1.9
	c0-1.1-0.4-1.9-0.9-2.4c-0.7-0.5-1.6-0.9-2.8-1.3L110.9,60.8z"/>
<path class="st1" d="M131.4,41c1.1-0.3,2-0.4,2.8-0.4s1.6,0,2.2,0c0.9,0,1.9,0,2.8,0s1.9,0.1,2.6,0.4l7.4,30.7l8.3-30.7
	c1.5-0.3,3-0.4,4.6-0.4c0.7,0,1.5,0,2.1,0c0.8,0,1.7,0.1,2.9,0.4l-13.1,43.5c-0.5,1.7-1.2,3.2-2,4.2c-0.8,1.2-1.6,2-2.5,2.6
	c-0.9,0.7-2,1.1-3.2,1.3c-1.2,0.3-2.5,0.4-3.8,0.4c-1.3,0-2.4-0.1-3.4-0.3c-1.1-0.1-2-0.4-3-0.7c0-0.3,0-0.4,0-0.5v-0.5
	c0-1.1,0.1-2.1,0.4-3c0.3-0.9,0.5-1.9,0.9-2.8c0.4,0.1,0.9,0.3,1.6,0.4c0.7,0.1,1.3,0.1,2,0.1c0.5,0,1.1,0,1.6-0.1
	c0.5-0.1,1.1-0.3,1.6-0.7c0.5-0.4,1.1-0.9,1.5-1.6c0.4-0.7,0.9-1.7,1.2-3l1.2-4.2c-0.5,0-1.1,0.1-1.7,0.1s-1.2,0-1.9,0h-1.5
	c-0.4,0-0.9,0-1.2-0.1L131.4,41z"/>
<path class="st1" d="M192.5,26.4c0.8-0.1,1.6-0.3,2.4-0.3s1.6-0.1,2.4-0.1c0.8,0,1.6,0,2.4,0.1c0.8,0,1.6,0.1,2.5,0.3V75
	c-2.1,0.7-4.4,1.1-6.5,1.5c-2.2,0.4-4.9,0.5-8.1,0.5c-2.4,0-4.8-0.3-6.9-0.9c-2.2-0.7-4.1-1.7-5.8-3.2c-1.7-1.5-3-3.3-4-5.6
	c-0.9-2.2-1.5-5-1.5-8.3c0-2.6,0.4-5,1.3-7.3c0.8-2.2,2-4.2,3.6-6c1.6-1.7,3.4-3,5.7-4c2.2-0.9,4.6-1.5,7.4-1.5c0.8,0,1.7,0,2.5,0.1
	c0.9,0,1.7,0.3,2.5,0.4V26.4z M192.5,48.3c-0.9-0.3-1.6-0.4-2.2-0.4c-0.5,0-1.3-0.1-2.1-0.1c-1.5,0-2.8,0.3-4,0.9
	c-1.1,0.7-2,1.5-2.8,2.5s-1.3,2.2-1.6,3.6c-0.4,1.3-0.5,2.8-0.5,4.4c0,1.9,0.3,3.4,0.7,4.8s1.1,2.4,1.9,3c0.8,0.8,1.7,1.3,2.8,1.7
	s2.2,0.5,3.6,0.5c0.8,0,1.5,0,2.1-0.1c0.7,0,1.3-0.3,2.1-0.4V48.3H192.5z"/>
<path class="st1" d="M218.1,61.5c0.1,2.8,1.2,4.8,2.9,6c1.7,1.2,4,1.9,6.9,1.9c1.6,0,3.2-0.1,4.8-0.4c1.6-0.3,3.2-0.7,4.6-1.3
	c0.5,0.9,0.9,2,1.3,3.3s0.5,2.6,0.7,4.1c-3.6,1.3-7.5,2-12,2c-3.3,0-6.1-0.4-8.5-1.3c-2.4-0.9-4.2-2.1-5.7-3.8
	c-1.5-1.6-2.5-3.6-3.3-5.8c-0.7-2.2-1.1-4.6-1.1-7.3s0.4-5,1.1-7.3c0.8-2.2,1.9-4.2,3.2-6c1.5-1.7,3.2-3,5.3-4s4.6-1.5,7.4-1.5
	c2.5,0,4.6,0.4,6.5,1.3s3.6,2,4.9,3.6c1.3,1.5,2.4,3.3,3,5.3c0.7,2.1,1.1,4.2,1.1,6.6c0,0.9,0,1.7-0.1,2.5c0,0.8-0.1,1.5-0.3,2
	h-22.6V61.5z M231.9,54.7c-0.1-2.1-0.7-4-1.9-5.3c-1.1-1.3-2.6-2-4.6-2c-2.2,0-4,0.7-5.2,1.9c-1.2,1.3-1.9,3-2.1,5.4H231.9z"/>
<path class="st1" d="M247.7,76.4c-0.3-1.6-0.4-3-0.4-4.5c0-1.5,0.1-2.9,0.4-4.6c0.8-0.1,1.6-0.3,2.5-0.3c0.9,0,1.7-0.1,2.4-0.1
	c0.8,0,1.6,0,2.5,0.1s1.7,0.1,2.5,0.3c0.1,0.8,0.3,1.6,0.3,2.2c0,0.8,0.1,1.5,0.1,2.2c0,0.7,0,1.5-0.1,2.2c0,0.8-0.1,1.6-0.3,2.4
	c-0.8,0.1-1.6,0.3-2.5,0.3s-1.7,0.1-2.5,0.1c-0.8,0-1.6,0-2.5-0.1C249.3,76.6,248.3,76.6,247.7,76.4"/>
</svg>
