<?xml version="1.0" encoding="utf-8"?>
<!-- Generator: Adobe Illustrator 25.4.1, SVG Export Plug-In . SVG Version: 6.00 Build 0)  -->
<svg version="1.1" id="Lager_1" xmlns="http://www.w3.org/2000/svg" xmlns:xlink="http://www.w3.org/1999/xlink" x="0px" y="0px"
	 viewBox="0 0 200 200" style="enable-background:new 0 0 200 200;" xml:space="preserve">
<style type="text/css">
	.st0{fill:#1D1D1B;}
</style>
<path class="st0" d="M125.42,78.6c12.61,0,22.86,10.26,22.86,22.86s-10.26,22.86-22.86,22.86s-22.86-10.26-22.86-22.86
	S112.82,78.6,125.42,78.6 M125.42,55.74c-25.25,0-45.72,20.47-45.72,45.72c0,25.25,20.47,45.72,45.72,45.72
	c25.25,0,45.72-20.47,45.72-45.72C171.15,76.21,150.68,55.74,125.42,55.74L125.42,55.74z"/>
<g>
	<path class="st0" d="M54.8,86.94L54.8,86.94l-21.54,48.38l24.26,10.8l10.74-24.13C74.22,108.6,68.19,92.9,54.8,86.94z"/>
	<path class="st0" d="M41.34,51.88c-5.96,13.4,0.06,29.09,13.46,35.06l10.8-24.26L41.34,51.88z"/>
</g>
</svg>
