<?xml version="1.0" encoding="utf-8"?>
<!-- Generator: Adobe Illustrator 21.0.0, SVG Export Plug-In . SVG Version: 6.00 Build 0)  -->
<svg version="1.1" id="Ebene_1" xmlns="http://www.w3.org/2000/svg" xmlns:xlink="http://www.w3.org/1999/xlink" x="0px" y="0px"
	 viewBox="0 0 453.5 124.7" style="enable-background:new 0 0 453.5 124.7;" xml:space="preserve">
<style type="text/css">
	.st0{fill:#28234C;}
	.st1{fill:#009FE3;}
</style>
<title>neos_primary</title>
<g id="Ebene_2">
	<g id="Layer_1">
		<path class="st0" d="M410.7,86l5-5.5c5.5,4.9,10.6,7.5,18.1,7.5c6.7,0,11.5-3.4,11.5-8.5c0-4.5-2.5-6.9-13.5-9.7
			c-12.7-3.2-19.1-7.6-19.1-16.5c0-9.2,8.5-15.5,19.3-15.5c8.1,0,14,2.6,19.7,7.1l-4.6,5.9c-5.3-4.1-9.7-5.9-15.2-5.9
			c-6.1,0-10.9,3-10.9,7.8c0,4.6,3,7.1,14.3,9.9c12.2,2.9,18.2,7.8,18.2,16.3c0,10-8.6,16.2-19.9,16.2C424.7,95.2,417.3,92,410.7,86
			z"/>
		<path class="st0" d="M327.8,66.5c0-15.7,12.1-28.7,29-28.7s29,13,29,28.7s-12.1,28.7-29,28.7S327.8,82.2,327.8,66.5z M377.5,66.5
			c0-12.1-8.5-21.3-20.7-21.3s-20.7,9.2-20.7,21.3s8.5,21.3,20.7,21.3S377.5,78.7,377.5,66.5L377.5,66.5z"/>
		<path class="st0" d="M302.5,38.8V46h-32.7v16.7H299V70h-29.2v17.1h33.1v7.2h-41.2V38.8H302.5z"/>
		<path class="st0" d="M191.1,38.8l32.5,40.9V38.8h7.9v55.4h-6.6l-33.4-42.1v42.1h-7.9V38.8H191.1z"/>
		<polygon class="st0" points="89,0 68.3,15.1 68.3,46.8 89,76.1 		"/>
		<polygon class="st0" points="89,112.8 9.2,0 0,6.8 0,124.7 20.8,109.6 20.8,51.2 72.7,124.7 95.3,124.7 111.7,112.8 		"/>
		<polygon class="st1" points="20.8,51.2 20.8,109.6 0,124.7 22.7,124.7 43.5,109.6 43.5,83.3 		"/>
		<polygon class="st1" points="89,76.1 89,0 111.7,0 111.7,112.8 89,112.8 9.2,0 35.2,0 		"/>
	</g>
</g>
</svg>
