<?xml version="1.0" encoding="utf-8"?>
<!-- Generator: Adobe Illustrator 22.1.0, SVG Export Plug-In . SVG Version: 6.00 Build 0)  -->
<svg version="1.1" id="Layer_1" xmlns="http://www.w3.org/2000/svg" xmlns:xlink="http://www.w3.org/1999/xlink" x="0px" y="0px"
	 viewBox="0 0 487.6 122" style="enable-background:new 0 0 487.6 122;" xml:space="preserve">
<style type="text/css">
	.st0{fill:#E0743F;stroke:#E0743F;stroke-width:2.9345;stroke-linecap:round;stroke-linejoin:round;stroke-miterlimit:10;}
	.st1{fill:#C15934;stroke:#C15934;stroke-width:2.9345;stroke-linecap:round;stroke-linejoin:round;stroke-miterlimit:10;}
	.st2{fill:#C15934;}
	.st3{fill:#E58B59;stroke:#E58B59;stroke-width:2.9345;stroke-linecap:round;stroke-linejoin:round;stroke-miterlimit:10;}
	.st4{fill:#E1743F;}
</style>
<g>
	<path class="st0" d="M29.5,62.5l-8.2,4.4c-0.4,0.2-0.4,0.8,0,1l8.2,4.4c0.4,0.2,0.9-0.1,0.9-0.5V63C30.4,62.6,29.9,62.3,29.5,62.5z
		"/>
	<path class="st1" d="M82,94.6h-5.3V65.2l5.6-2.6l0.7,0.2v30.9C83,94.2,82.6,94.6,82,94.6z"/>
	<path class="st0" d="M108,58.6l5.8-6.6c0,0,4.2,7.9,4.2,7.8L108,58.6z"/>
	<path class="st1" d="M46.3,37.7c-0.2,0.3-0.4,0.6-0.4,1v5.8c0,0.5-0.3,1.1-0.8,1.3L32.3,53c-0.8,0.4-1,1.4-0.5,2.1l20.8,31.4
		L42.2,97c-0.3,0.3-0.6,0.4-1.1,0.4h-10c-0.8,0-1.5-0.7-1.5-1.5V43.2c0-0.5,0.2-1,0.7-1.3l16.8-11c0.2-0.2,0.5-0.2,0.8-0.2h4.9
		L46.3,37.7z"/>
	<path class="st0" d="M76.7,96.6V65.2l-29.8-0.1c-0.5,0-1-0.4-1-1V45.4l-14.2,7.9c-0.5,0.3-0.6,0.9-0.3,1.4l29.1,42.3
		c0.2,0.3,0.5,0.4,0.8,0.4h14.5C76.4,97.5,76.8,97.1,76.7,96.6z"/>
	<g>
		<path class="st2" d="M63.6,27.3c-0.2,0-0.3-0.1-0.3-0.3v-9c0-0.1,0.1-0.2,0.1-0.3c0.1,0,0.1,0,0.2,0c0,0,0.1,0,0.1,0l16.8,9
			c0.1,0.1,0.2,0.2,0.1,0.3c0,0.1-0.1,0.2-0.3,0.2C80.4,27.3,63.6,27.3,63.6,27.3z"/>
		<path class="st2" d="M63.6,18l16.8,9H63.6V18 M63.6,17.4c-0.1,0-0.2,0-0.3,0.1c-0.2,0.1-0.3,0.3-0.3,0.5v9c0,0.3,0.3,0.6,0.6,0.6
			h16.8c0.3,0,0.5-0.2,0.6-0.4s-0.1-0.5-0.3-0.7l-16.8-9C63.8,17.5,63.7,17.4,63.6,17.4L63.6,17.4z"/>
	</g>
	<polygon class="st1" points="100.9,66.8 95.3,58.1 95,56.5 101.4,50.4 113.8,52 	"/>
	<path class="st0" d="M82.4,62.6l-5.6,2.6l-24-34.5L61,27c0.2-0.1,0.4-0.1,0.7-0.1h19.1l10,7.9c0.4,0.3,0.6,0.7,0.7,1.1l3.8,22.2
		l5.5,8.7L82.4,62.6z"/>
	<path class="st3" d="M46.9,65l29.8,0.1l-24-34.5l-6.4,7C46.1,38,46,38.4,46,38.8V64C46,64.6,46.4,65,46.9,65z"/>
</g>
<g>
	<path class="st4" d="M140,49.4c0.7,0,1.3,0,1.9,0c2.5,0.1,4.7,0.7,6.2,2.9c0.5,0.7,1.3,2.1,1.3,4.4c0,1.1-0.2,3.4-2.1,5.3
		c-1.9,1.8-4.4,1.8-6.9,1.8h-1.7v8.8h-5V49.4H140z M138.8,59.5h2c0.6,0,1.1,0,1.7-0.2c1.8-0.5,2-2.1,2-2.8c0-2-1.3-2.7-2-2.9
		c-0.4-0.1-0.8-0.1-1.6-0.1h-2.1V59.5z"/>
	<path class="st4" d="M160.1,49.4c0.6,0,1.2,0,1.8,0c2.5,0.1,5,0.7,6.4,3c1,1.6,1.1,3.3,1.1,3.9c0,2.1-0.8,4.4-2.7,5.6
		c-0.7,0.4-1.1,0.6-2.6,0.9l6.7,9.9h-6l-6.2-9.8v9.8h-4.9V49.4H160.1z M158.8,59.6h1.8c1.4,0,2.7-0.1,3.5-1.5
		c0.2-0.3,0.4-0.8,0.4-1.7c0-0.3,0-1.2-0.7-1.9c-0.9-1-2.1-1.1-3.3-1.1h-1.7V59.6z"/>
	<path class="st4" d="M180.5,72.7h-5.1V49.4h5.1V72.7z"/>
	<path class="st4" d="M190.3,49.4l4.5,13.4c0.3,1,0.6,2,0.9,3.1c0.2,0.6,0.3,1.2,0.4,1.8c0.4-1.4,0.7-2.7,1.1-4
		c0.3-0.9,0.6-1.8,0.9-2.7l3.9-11.6h5.5l-9.1,23.3h-4.9l-8.7-23.3H190.3z"/>
	<path class="st4" d="M221.5,49.4l9.6,23.3h-5.5l-1.8-4.7h-9.7l-1.7,4.7H207l9.1-23.3H221.5z M222.1,63.6c-0.6-1.6-1.2-3.2-1.7-4.7
		c-1.1-3-1.3-3.8-1.5-5.4c-0.1,0.5-0.1,1-0.2,1.4c-0.3,1.1-0.9,3-1.3,4.1c-0.5,1.5-1.1,3-1.6,4.6H222.1z"/>
	<path class="st4" d="M246.1,49.4v4.5h-5v18.8h-5V53.9h-5v-4.6H246.1z"/>
	<path class="st4" d="M263.9,49.4v4.5h-8.2v4.6h8V63h-8v5h8.2v4.7h-13.2V49.4H263.9z"/>
	<path class="st4" d="M287.1,49.4c0.7,0,1.3,0,1.9,0c2.5,0.1,4.7,0.7,6.2,2.9c0.5,0.7,1.3,2.1,1.3,4.4c0,1.1-0.2,3.4-2.1,5.3
		c-1.9,1.8-4.4,1.8-6.9,1.8h-1.7v8.8h-5V49.4H287.1z M285.9,59.5h2c0.6,0,1.1,0,1.7-0.2c1.8-0.5,2-2.1,2-2.8c0-2-1.3-2.7-2-2.9
		c-0.4-0.1-0.8-0.1-1.6-0.1h-2.1V59.5z"/>
	<path class="st4" d="M311.4,49.4l9.6,23.3h-5.5l-1.8-4.7H304l-1.7,4.7h-5.4l9.1-23.3H311.4z M312,63.6c-0.6-1.6-1.2-3.2-1.7-4.7
		c-1.1-3-1.3-3.8-1.5-5.4c-0.1,0.5-0.1,1-0.2,1.4c-0.3,1.1-0.9,3-1.3,4.1c-0.5,1.5-1.1,3-1.6,4.6H312z"/>
	<path class="st4" d="M341.5,56.1c-0.8-0.7-3-2.6-6.2-2.6c-0.6,0-1.9,0-3.3,0.8c-1.4,0.8-3.6,2.9-3.6,6.9c0,0.5,0,1.6,0.5,2.9
		c0.5,1.6,2.1,4.5,6.5,4.5c0.3,0,0.9,0,1.8-0.2c0.6-0.1,2.1-0.6,3.2-1.4c0.4-0.3,0.8-0.6,1.2-0.9l0,5.4c-1.1,0.4-3.4,1.6-6.7,1.6
		c-1.2,0-4.6-0.1-7.3-2.5c-1.5-1.3-4.2-4.4-4.2-9.7c0-2.1,0.5-4.5,1.4-6.4c0.3-0.5,0.7-1.3,1.7-2.3c1.1-1.2,2.4-2.2,3.9-2.7
		c1.9-0.7,3.8-0.8,4.4-0.8c0.8,0,2.9,0.1,5,0.8c0.6,0.2,1.3,0.5,1.8,0.8V56.1z"/>
	<path class="st4" d="M353.3,59.9l7.8-10.5h6l-8.8,11.1l9.1,12.2h-6.4l-7.9-10.9v10.9h-5.1V49.4h5.1V59.9z"/>
	<path class="st4" d="M384.4,49.4l9.6,23.3h-5.5l-1.8-4.7H377l-1.7,4.7h-5.4l9.1-23.3H384.4z M384.9,63.6c-0.6-1.6-1.2-3.2-1.7-4.7
		c-1.1-3-1.3-3.8-1.5-5.4c-0.1,0.5-0.1,1-0.2,1.4c-0.3,1.1-0.9,3-1.3,4.1c-0.5,1.5-1.1,3-1.6,4.6H384.9z"/>
	<path class="st4" d="M414.3,56.5c-0.2-0.2-0.4-0.6-0.9-1c-0.8-0.7-2.5-2-5.3-2c-1.7,0-3.1,0.5-4.5,1.6c-2.4,2-2.5,4.8-2.5,5.9
		c0,0.8,0,2.8,1.3,4.8c0.7,1,2.4,3,5.8,3c2.9,0,4.5-1.5,5.1-2.3c0.4-0.6,0.7-1.2,1-1.7h-6.2v-4.4l11.7,0c0,1.3,0.1,5-2.3,8.3
		c-3.1,4.3-7.8,4.6-9.5,4.6c-0.9,0-2-0.1-2.8-0.3c-1.6-0.3-4.6-1.2-6.9-4.6c-0.9-1.3-2.1-3.5-2.1-7.3c0-1.6,0.2-2.6,0.3-3.2
		c0.2-0.9,0.9-3.3,2.7-5.3c0.3-0.3,0.9-0.9,1.7-1.6c2.1-1.6,4.6-2.2,7.3-2.2c3.6,0,5.8,1.2,7,2c1.1,0.7,1.8,1.5,2.1,1.8
		c0.5,0.6,0.7,0.9,1.1,1.5L414.3,56.5z"/>
	<path class="st4" d="M430.3,72.7h-5.1V49.4h5.1V72.7z"/>
	<path class="st4" d="M447.1,55.5c-0.3-0.4-1.5-2.2-3.4-2.2c-1.3,0-2.4,0.8-2.4,2.1c0,1.8,2.2,2.6,3.3,3.2c2.2,1,2.9,1.4,3.8,2.1
		c0.9,0.8,2.2,2.2,2.2,5c0,2.9-1.4,4.6-2.2,5.3c-0.2,0.2-0.8,0.8-1.7,1.2c-1.7,0.9-3.6,1-4.3,1c-0.5,0-2.3-0.1-3.9-0.7
		c-1.8-0.7-3.3-2.2-3.7-2.6l3.4-3.7c1.1,1.2,2.4,2.7,4.3,2.7c1.5,0,2.8-1.1,2.8-2.7c0-0.5-0.1-0.9-0.4-1.3c-0.6-1-2.1-1.6-3-2
		c-1.2-0.6-2.3-1.2-3.4-2c-0.8-0.7-2.6-2.3-2.6-5.2c0-1.9,0.8-3.2,1.2-3.8c2-2.9,5.3-3.1,6.4-3.1c0.5,0,2.2,0.1,3.8,0.8
		c1.5,0.7,2.5,1.9,2.9,2.3L447.1,55.5z"/>
	<path class="st4" d="M467.4,49.4v4.5h-5v18.8h-5V53.9h-5v-4.6H467.4z"/>
</g>
</svg>
