<svg version="1.1" id="Layer_1" xmlns="http://www.w3.org/2000/svg" xmlns:xlink="http://www.w3.org/1999/xlink" x="0px" y="0px"
	 width="100%" viewBox="0 0 600 229" enable-background="new 0 0 600 229" xml:space="preserve">
<path fill="#FEFEFE" opacity="1.000000" stroke="none" 
	d="
M1.224494,71.308067 
	C1.000000,49.006306 1.093173,27.011805 0.901762,5.019777 
	C0.872304,1.635213 1.514954,0.898250 4.978894,0.902133 
	C111.781464,1.021863 218.584198,1.000000 325.386902,1.000000 
	C415.860962,1.000000 506.335083,1.031290 596.808899,0.889874 
	C600.574219,0.883988 601.090637,1.858129 601.085388,5.306753 
	C600.972778,78.785515 600.968018,152.264542 601.096741,225.743240 
	C601.103027,229.328156 600.385742,230.100204 596.758972,230.098160 
	C399.648895,229.987381 202.538742,229.985580 5.428677,230.104370 
	C1.520087,230.106720 0.748139,229.069305 0.907795,225.427155 
	C1.221259,218.276276 1.000000,211.101944 1.000000,203.468658 
	C1.221795,202.830963 1.443589,202.661926 2.028901,202.285461 
	C4.839219,201.345139 7.355040,201.623520 9.841658,201.622375 
	C50.819328,201.603485 91.797012,201.611404 132.774689,201.607376 
	C140.614563,201.606598 140.601517,201.596054 140.611450,194.004669 
	C140.633286,177.345428 133.710159,164.110184 120.782715,153.864441 
	C109.692093,145.074509 96.939644,139.325821 84.008591,133.916061 
	C69.565620,127.873817 54.994011,122.090736 41.217823,114.600853 
	C24.825909,105.688835 10.719179,94.327530 2.425802,76.543495 
	C2.004786,74.652229 1.802241,73.120270 1.224494,71.308067 
z"/>
<path fill="#3496AA" opacity="1.000000" stroke="none" 
	d="
M1.000000,71.468658 
	C2.396975,71.655380 2.473208,73.120003 3.018213,74.635437 
	C4.372803,115.716270 3.287624,156.469742 3.589622,197.216629 
	C3.601951,198.880066 3.515819,200.553131 2.354743,202.443695 
	C1.859813,202.866333 1.692152,202.917038 1.262246,202.983856 
	C1.000000,159.312439 1.000000,115.624878 1.000000,71.468658 
z"/>
<path fill="#148094" opacity="1.000000" stroke="none" 
	d="
M2.490314,202.882904 
	C2.018015,161.703827 2.004828,120.592041 2.016088,79.480263 
	C2.016447,78.170769 2.267988,76.861336 2.709529,75.263153 
	C13.675395,97.500145 33.175064,109.853493 54.709663,119.833031 
	C71.475708,127.602715 89.027206,133.608414 105.393745,142.271912 
	C116.230751,148.008408 126.230881,154.815170 133.383087,165.101944 
	C140.770721,175.727325 142.770813,187.652939 142.112991,200.287949 
	C141.970703,203.020935 140.383011,202.992325 138.440063,202.984482 
	C130.440948,202.952194 122.441643,202.968979 114.442406,202.967728 
	C77.279320,202.961884 40.116238,202.956055 2.490314,202.882904 
z"/>
<path fill="#148194" opacity="1.000000" stroke="none" 
	d="
M150.253998,125.374954 
	C139.529083,116.169724 127.138550,110.467041 114.700775,104.869316 
	C101.205589,98.795685 87.245682,93.783279 74.003761,87.130020 
	C63.841969,82.024353 54.179035,76.202621 46.532753,67.557678 
	C37.472240,57.313789 33.866295,45.199623 33.917244,31.706305 
	C33.929726,28.400623 35.336876,27.950232 38.117260,27.968573 
	C53.433018,28.069599 68.749725,28.029877 84.066109,28.031345 
	C105.209549,28.033375 126.353035,28.049448 147.496368,28.001982 
	C150.167358,27.995987 152.091049,27.787985 152.068085,31.728085 
	C151.888611,62.526413 151.968658,93.326248 151.954025,124.125610 
	C151.953796,124.611099 151.769272,125.096512 151.295288,125.800217 
	C150.792786,125.850037 150.665741,125.681580 150.253998,125.374954 
z"/>
<path fill="#040404" opacity="1.000000" stroke="none" 
	d="
M353.993805,46.063713 
	C353.031555,40.765572 354.934906,39.387600 359.763245,39.707661 
	C366.886200,40.179840 374.064819,39.753220 381.218170,39.838314 
	C403.483704,40.103172 417.327148,52.510906 419.795288,74.687187 
	C420.698181,82.799667 420.659607,90.994797 418.665619,98.990845 
	C414.291260,116.532478 401.873474,126.402100 383.389069,126.940315 
	C374.910583,127.187187 366.413910,126.828873 357.937103,127.103409 
	C354.531006,127.213722 353.913696,126.045990 353.928314,122.924950 
	C354.047668,97.468910 353.994507,72.012062 353.993805,46.063713 
z"/>
<path fill="#030303" opacity="1.000000" stroke="none" 
	d="
M514.417358,55.954102 
	C514.442078,78.566704 514.404175,100.896332 514.562805,123.224556 
	C514.584534,126.284439 513.808655,127.103317 510.725586,127.132172 
	C507.565308,127.161766 506.911072,126.236038 506.925262,123.210220 
	C507.049622,96.712120 507.073425,70.212708 506.903076,43.715118 
	C506.880493,40.202869 508.158508,39.930656 511.125031,39.708466 
	C515.984131,39.344532 518.757996,40.927059 521.367798,45.277180 
	C533.431396,65.385071 545.964355,85.211441 558.340515,105.131607 
	C559.183594,106.488541 560.120117,107.787399 561.824341,110.317581 
	C561.824341,102.188782 561.824341,95.463562 561.824341,88.738335 
	C561.824280,73.739082 561.890320,58.739277 561.765686,43.741058 
	C561.742126,40.904079 562.129822,39.652355 565.464844,39.680916 
	C568.685181,39.708496 569.249329,40.741417 569.237000,43.687347 
	C569.127808,69.685562 569.214417,95.684624 569.094360,121.682739 
	C569.086304,123.432388 570.731812,126.640541 567.440796,126.841858 
	C564.330383,127.032112 560.803772,128.438141 558.265930,124.207695 
	C549.795959,110.088867 540.879333,96.238174 532.145264,82.277596 
	C526.676514,73.536293 521.228210,64.782135 515.514160,55.795410 
	C514.931213,55.254154 514.648132,55.270863 514.417358,55.954102 
z"/>
<path fill="#0E0E0E" opacity="1.000000" stroke="none" 
	d="
M295.298553,46.538483 
	C284.870758,46.544464 274.871277,46.693577 264.880798,46.459507 
	C261.518494,46.380733 260.718933,47.452888 260.798920,50.638645 
	C261.007996,58.963364 261.059143,67.303040 260.783875,75.623878 
	C260.662201,79.300835 262.005249,79.970016 265.333496,79.878937 
	C273.823730,79.646606 282.324524,79.818283 290.820953,79.785980 
	C292.904572,79.778061 294.630798,79.555328 294.650482,82.726578 
	C294.670380,85.923828 293.205536,86.097130 290.710724,86.066116 
	C281.882416,85.956329 273.050659,86.103973 264.222839,85.974838 
	C261.726013,85.938309 260.753265,86.493828 260.804047,89.233955 
	C260.973694,98.393707 261.000824,107.561852 260.784973,116.719765 
	C260.712891,119.778297 261.911652,120.208969 264.524994,120.180756 
	C275.186096,120.065666 285.850403,120.226105 296.510651,120.077103 
	C299.379059,120.037018 300.640533,120.523094 300.665100,123.816757 
	C300.690186,127.182930 298.986908,127.059517 296.644867,127.050644 
	C282.484131,126.996994 268.321747,126.919647 254.163177,127.102692 
	C250.935104,127.144432 250.367691,126.059265 250.380341,123.109406 
	C250.493851,96.620605 250.501038,70.130905 250.384430,43.642155 
	C250.371017,40.596794 251.118088,39.684727 254.245972,39.727100 
	C267.404877,39.905361 280.567780,39.773067 293.728729,39.841511 
	C295.022247,39.848236 297.223297,38.894238 297.360809,41.144920 
	C297.470978,42.948822 299.066040,45.624767 295.298553,46.538483 
z"/>
<path fill="#030303" opacity="1.000000" stroke="none" 
	d="
M467.998474,46.504898 
	C462.832489,46.509689 458.158417,46.677074 453.502197,46.460125 
	C450.572083,46.323597 449.358429,47.013264 449.436432,50.249176 
	C449.645233,58.910591 449.604523,67.582260 449.445984,76.245888 
	C449.393677,79.104454 450.315094,79.945587 453.151947,79.891464 
	C461.981842,79.723015 470.818054,79.903244 479.649536,79.782753 
	C482.099213,79.749321 483.048065,80.232536 483.128021,83.000214 
	C483.217834,86.108337 481.683411,86.039513 479.513428,86.025688 
	C470.680634,85.969429 461.845093,86.112595 453.015381,85.938255 
	C450.204285,85.882751 449.368591,86.635139 449.431671,89.510384 
	C449.629089,98.505882 449.672302,107.513130 449.419373,116.505806 
	C449.326080,119.822449 450.579254,120.258553 453.430176,120.219131 
	C464.094543,120.071663 474.763550,120.254906 485.427826,120.104347 
	C488.224945,120.064857 489.050446,120.826790 489.119537,123.686386 
	C489.195282,126.820183 487.866119,127.068512 485.322876,127.050896 
	C470.990509,126.951622 456.656708,126.949051 442.324402,127.053925 
	C439.822235,127.072227 438.920959,126.535095 438.931854,123.801262 
	C439.039001,96.968887 439.041687,70.135735 438.931091,43.303391 
	C438.919159,40.418762 439.778900,39.735641 442.555786,39.765137 
	C455.887360,39.906731 469.221375,39.861412 482.554138,39.798641 
	C484.810547,39.788017 486.200745,39.892357 486.116974,42.886494 
	C486.039581,45.654488 485.382446,46.687569 482.494873,46.553982 
	C477.838409,46.338558 473.164490,46.501690 467.998474,46.504898 
z"/>
<path fill="#090909" opacity="1.000000" stroke="none" 
	d="
M205.427658,38.716431 
	C212.317108,38.265408 218.398376,39.606552 224.033279,42.830078 
	C228.937805,45.635788 228.924866,45.658405 226.963989,51.941025 
	C222.508530,48.612385 217.717560,46.218960 212.311508,45.266838 
	C199.041290,42.929668 189.500000,52.514240 193.027008,64.663635 
	C194.271881,68.951752 197.294556,71.825493 201.057083,73.759621 
	C206.067459,76.335213 211.329956,78.414948 216.407440,80.866493 
	C229.383575,87.131706 234.023514,96.324837 231.018036,109.564369 
	C228.526672,120.539139 218.488037,127.877014 205.760788,128.216248 
	C197.409058,128.438858 189.489212,127.219963 182.641907,122.017365 
	C177.238770,117.912048 177.200302,117.260719 181.532471,111.786087 
	C187.871277,119.164734 196.075302,122.065674 205.563507,121.319366 
	C213.820816,120.669891 219.354614,115.959068 220.961365,108.709206 
	C222.681427,100.948158 220.159698,95.203133 212.376190,90.965584 
	C206.268570,87.640419 199.598740,85.336494 193.540085,81.935143 
	C179.519012,74.063622 177.744354,54.880623 189.865128,44.338398 
	C194.174194,40.590523 199.356918,38.982758 205.427658,38.716431 
z"/>
<path fill="#111111" opacity="1.000000" stroke="none" 
	d="
M318.436646,59.000797 
	C318.437347,53.336449 318.666443,48.158672 318.369598,43.011227 
	C318.111359,38.533104 321.209351,39.676132 323.331726,39.889423 
	C325.406647,40.097946 328.941956,37.821297 328.922485,42.847504 
	C328.818024,69.836288 328.807312,96.826057 328.939728,123.814629 
	C328.966339,129.244644 325.177338,126.566742 323.001373,126.941406 
	C320.614136,127.352432 318.283661,127.705177 318.332306,123.473640 
	C318.577545,102.151695 318.439880,80.825348 318.436646,59.000797 
z"/>
<path fill="#0D0D0D" opacity="1.000000" stroke="none" 
	d="
M357.816345,163.013474 
	C362.361145,151.931412 371.240845,147.176514 383.260620,149.069458 
	C393.397156,150.665848 400.195312,158.479797 401.044373,169.503616 
	C401.300934,172.834747 401.376404,176.176346 400.702972,179.455795 
	C398.054077,192.355179 388.193237,198.875992 374.348907,196.959396 
	C362.593628,195.332001 355.058807,184.721130 356.206207,171.199997 
	C356.429047,168.574432 357.189789,165.994522 357.816345,163.013474 
z"/>
<path fill="#0F0F0F" opacity="1.000000" stroke="none" 
	d="
M278.222992,195.302521 
	C278.139465,181.038086 278.215576,167.208725 278.062622,153.381897 
	C278.029541,150.389603 278.742065,149.131348 281.922180,149.382492 
	C286.395569,149.735764 290.920441,149.509415 295.378540,149.967010 
	C301.992859,150.645966 306.339294,154.566879 307.730682,160.545227 
	C309.113953,166.488678 306.772797,173.124130 301.611816,176.225006 
	C298.916351,177.844559 298.605377,178.859039 300.579559,181.354614 
	C304.085022,185.785904 307.197113,190.528793 310.452454,195.156326 
	C310.615295,195.387772 310.576324,195.761169 310.642029,196.128204 
	C306.065674,197.808945 303.366150,195.789886 301.120087,191.890686 
	C298.968506,188.155563 296.248199,184.750641 293.833160,181.163345 
	C292.957550,179.862686 292.055878,179.083084 290.285889,178.963165 
	C284.190613,178.550201 284.197906,178.445038 284.202148,184.528809 
	C284.203888,187.027939 284.216431,189.527130 284.203308,192.026184 
	C284.176239,197.180756 283.909546,197.344788 278.222992,195.302521 
z"/>
<path fill="#101010" opacity="1.000000" stroke="none" 
	d="
M191.894775,155.938065 
	C198.988770,147.578049 213.170013,147.168182 223.265686,151.558197 
	C225.100433,152.356018 225.566376,153.433517 224.891373,154.980835 
	C224.078064,156.845245 222.842743,155.158615 222.066727,154.872177 
	C216.695999,152.889969 211.362610,151.432129 205.529282,152.811020 
	C200.231125,154.063416 196.555405,156.946381 194.784821,162.122009 
	C192.276062,169.455475 192.173813,176.834991 194.891190,184.102325 
	C197.978500,192.358978 206.829102,196.048340 214.941544,192.668381 
	C220.299835,190.435883 223.505417,182.008041 221.037018,176.423584 
	C220.003525,174.085464 217.783859,175.726547 216.200256,175.196686 
	C214.293091,174.558548 210.614136,176.840439 210.720184,173.326782 
	C210.805405,170.502853 214.281357,172.086899 216.141235,172.054626 
	C226.554764,171.873917 226.556000,171.964401 226.556641,182.183029 
	C226.556854,185.680954 226.627625,189.180893 226.525818,192.675812 
	C226.486694,194.019302 227.359360,195.953079 225.222702,196.444901 
	C223.031235,196.949341 223.087952,194.959549 222.580505,193.640121 
	C222.406479,193.187592 222.043045,192.807922 221.765762,192.394394 
	C205.838272,203.529556 188.751801,195.770416 186.736343,176.492081 
	C185.970490,169.166397 187.003693,162.240753 191.894775,155.938065 
z"/>
<path fill="#0E0E0E" opacity="1.000000" stroke="none" 
	d="
M546.157288,180.056137 
	C543.927795,184.210922 545.198364,188.532349 544.910278,192.754654 
	C544.768799,194.828568 545.124084,196.622803 541.968994,196.636856 
	C539.106201,196.649612 538.753784,195.429367 538.767700,193.049347 
	C538.845642,179.723984 538.870300,166.397247 538.742249,153.072617 
	C538.715393,150.275467 539.467590,149.184982 542.379578,149.409012 
	C546.520264,149.727524 550.711853,149.464035 554.837219,149.885391 
	C563.059326,150.725204 567.597107,155.272446 568.126465,162.750565 
	C568.762329,171.734131 564.916443,177.181488 556.564697,179.405197 
	C553.266113,180.283478 549.946899,179.875778 546.157288,180.056137 
z"/>
<path fill="#0A0A0A" opacity="1.000000" stroke="none" 
	d="
M480.740631,186.244904 
	C482.850098,175.792862 481.329926,165.614563 481.798157,155.496094 
	C481.859711,154.166550 481.859406,152.831253 481.819214,151.500687 
	C481.773834,149.999954 482.493866,149.475052 483.935394,149.467972 
	C485.310577,149.461227 486.205780,149.810211 486.176453,151.367630 
	C485.960632,162.846420 486.993347,174.372040 485.628448,185.790649 
	C485.022827,190.857162 481.392822,194.301468 476.396820,195.990067 
	C471.854248,197.525421 467.183258,197.608475 462.587616,196.713806 
	C454.925598,195.222198 450.499573,190.125214 450.238129,182.005798 
	C449.922119,172.191711 450.224792,162.359070 450.095612,152.536621 
	C450.063202,150.071259 450.961517,149.490555 453.265839,149.398041 
	C456.099976,149.284256 456.044952,150.856812 456.035797,152.840042 
	C455.993500,161.997955 455.956787,171.156738 456.038239,180.314117 
	C456.099487,187.195892 459.104218,191.598907 464.412811,192.959076 
	C471.575653,194.794327 476.873474,192.720123 480.740631,186.244904 
z"/>
<path fill="#818181" opacity="1.000000" stroke="none" 
	d="
M514.706665,56.164665 
	C514.322632,55.666683 514.227234,55.095840 514.131897,54.524998 
	C514.481995,54.652233 514.832031,54.779472 515.219849,55.231892 
	C515.170166,55.735317 515.082764,55.913563 514.706665,56.164665 
z"/>
<path fill="#F3F7F7" opacity="1.000000" stroke="none" 
	d="
M151.531891,200.548889 
	C151.476898,200.581696 151.586884,200.516098 151.531891,200.548889 
z"/>
<path fill="#F3F7F7" opacity="1.000000" stroke="none" 
	d="
M151.449707,128.532608 
	C151.416702,128.476883 151.482712,128.588333 151.449707,128.532608 
z"/>
<path fill="#F3F7F7" opacity="1.000000" stroke="none" 
	d="
M150.082199,125.416672 
	C150.296082,125.220078 150.562592,125.338753 150.844299,125.805649 
	C150.632233,125.956879 150.390656,125.816238 150.082199,125.416672 
z"/>
<path fill="#FCFCFC" opacity="1.000000" stroke="none" 
	d="
M364.168884,97.999847 
	C364.168549,82.012794 364.309296,66.523499 364.068481,51.040150 
	C364.008423,47.177467 365.161499,46.101059 368.834351,46.431099 
	C372.302734,46.742764 375.822296,46.476719 379.319336,46.479740 
	C395.474121,46.493694 404.421143,53.533066 407.704987,69.427895 
	C409.848419,79.802849 409.748199,90.273415 406.998230,100.589928 
	C403.578033,113.420769 394.966949,120.024078 381.610046,120.157722 
	C377.280762,120.201042 372.923767,119.866234 368.628815,120.252853 
	C364.662506,120.609871 363.901672,119.044815 364.084473,115.481766 
	C364.374268,109.834541 364.166260,104.161774 364.168884,97.999847 
z"/>
<path fill="#FBFBFB" opacity="1.000000" stroke="none" 
	d="
M393.072632,183.709702 
	C389.186005,191.554321 384.033539,194.604248 376.777832,193.692978 
	C369.534393,192.783249 365.442749,188.892487 363.608673,180.791763 
	C362.265839,174.860687 362.406342,168.872330 364.134644,163.033234 
	C366.158752,156.194916 371.560089,152.256699 378.578583,152.186676 
	C385.614044,152.116486 390.874237,155.889130 393.145264,162.760147 
	C395.405273,169.597794 395.398956,176.465424 393.072632,183.709702 
z"/>
<path fill="#F6F6F6" opacity="1.000000" stroke="none" 
	d="
M297.137085,174.389496 
	C296.659515,174.692535 296.509338,174.768158 296.350403,174.811768 
	C285.119568,177.893158 284.189026,177.219940 284.184326,166.011353 
	C284.183136,163.193146 284.477509,160.336533 284.115082,157.565720 
	C283.572632,153.418961 285.382996,152.603607 289.091705,152.761230 
	C293.950531,152.967743 298.830078,153.296997 300.490173,158.668747 
	C302.176666,164.125961 302.715057,169.828583 297.137085,174.389496 
z"/>
<path fill="#FAFAFA" opacity="1.000000" stroke="none" 
	d="
M544.859985,171.902405 
	C544.859863,166.262268 544.955872,161.109741 544.815552,155.963669 
	C544.753662,153.693344 545.296570,152.887512 547.787781,152.780685 
	C559.234558,152.289810 565.039612,160.303925 560.767883,170.975769 
	C558.882935,175.684814 550.078918,179.232117 545.801208,176.896713 
	C543.910828,175.864731 545.237061,173.889893 544.859985,171.902405 
z"/>
</svg>