<?xml version="1.0" encoding="utf-8"?>
<!-- Generator: Adobe Illustrator 28.2.0, SVG Export Plug-In . SVG Version: 6.00 Build 0)  -->
<svg version="1.1" id="Layer_1" xmlns="http://www.w3.org/2000/svg" xmlns:xlink="http://www.w3.org/1999/xlink" x="0px" y="0px"
	 viewBox="0 0 612 307.62" style="enable-background:new 0 0 612 307.62;" xml:space="preserve">
<style type="text/css">
	.st0{fill:#58595B;}
	.st1{fill:#8DB61D;}
</style>
<g>
	<g>
		<path class="st0" d="M88.71,140.42c16.51,0,29.17,9.89,32.94,13.19l15.96-14.38c-4.3-4.5-21.55-20.59-48.22-20.59
			c-27.1,0-43.94,12.51-43.94,32.66c0,22.71,26.73,30.46,46.25,36.13c12.31,3.58,21.2,6.15,21.2,11.69
			c0,6.71-7.54,10.87-19.67,10.87c-16.49,0-28.99-9.86-32.73-13.18l-15.95,14.37c4.29,4.5,21.52,20.59,48,20.59
			c27.24,0,44.16-12.52,44.16-32.66c0-22.7-26.82-30.46-46.4-36.13c-12.35-3.58-21.28-6.16-21.28-11.7
			C69.03,144.69,76.76,140.42,88.71,140.42z"/>
		<path class="st0" d="M218.08,120.44l-25,66.75l-26.41-66.75h-25.37l39.28,99.65l-0.22,0.58l-9.16,24.38
			c-3.22,8.55-0.08,18.19,7.56,23.21l7.3,4.8l57.42-152.62H218.08z"/>
		<path class="st0" d="M327.41,103.22v26.04l-2.52-1.64c-9.04-5.88-19.58-8.98-30.47-8.98c-34.35,0-61.66,30.78-55.77,66.22
			c3.54,21.3,19.5,39.18,40.33,44.85c16.12,4.38,32.62,1.74,45.9-6.91l2.52-1.64v8.82h25.62V78.2l-14.93,7.6
			C331.54,89.14,327.41,95.87,327.41,103.22z M295.33,207.97c-17.94,0-30.95-13.77-30.95-32.75c0-18.99,13.02-32.77,30.95-32.77
			c17.94,0,30.96,13.78,30.96,32.77C326.28,194.19,313.26,207.97,295.33,207.97z"/>
		<path class="st0" d="M420.99,207.52c-11.7,0-21.87-6.6-26.53-17.21l-0.83-1.89l83.79-15.26c-0.01-0.1-0.02-0.21-0.03-0.32
			c-0.03-0.39-0.06-0.8-0.06-1.23c-1.1-30.43-25.85-54.32-56.35-54.32c-31.19,0-56.57,25.38-56.57,56.57
			c0,7.09,1.36,14.13,3.94,20.35c8.24,21.34,29.88,36.22,52.63,36.22c36.26,0,52.45-27.82,55.94-34.82l-20.99-6.67
			C452.54,195.2,439.43,207.52,420.99,207.52z M390.97,163.86c2.65-13.03,13.71-23.17,26.29-24.12
			c12.16-1.17,24.69,6.06,30.45,17.59l0.97,1.95l-58.83,10.5L390.97,163.86z"/>
	</g>
	<g>
		<path class="st1" d="M482.91,129.81h46.54c20.99,0,38-17.01,38-38V39.16C512.09,66.6,482.91,129.81,482.91,129.81z"/>
		<path class="st1" d="M561.95,34.55h-51.83c-20.98,0-38,17.01-38,38v40.13C472.13,112.68,492.48,69.91,561.95,34.55z"/>
	</g>
</g>
</svg>
