<svg xmlns="http://www.w3.org/2000/svg" width="481.719" height="203.563"><path d="M140.6 371.503c-5.205 0-12.961-1.593-13.917-1.81v-7.75c2.55.53 9.135 1.628 13.812 1.628 5.416 0 8.923-4.606 8.923-12.784 0-9.669-1.592-14.767-9.135-14.767h-8.713v-7.755h7.649c8.607 0 9.03-8.819 9.03-13.068 0-8.395-2.656-11.794-7.966-11.794-4.675 0-9.99 1.17-13.07 1.807v-7.754c1.17-.214 7.44-1.806 12.856-1.806 10.944 0 17.211 4.673 17.211 20.505 0 7.223-2.551 13.596-8.181 15.616 6.479.424 9.454 7.541 9.454 17.954 0 15.828-6.16 21.778-17.953 21.778m-48.867-68.1c-9.56 0-12.75 6.484-12.75 29.854 0 22.843 3.19 30.491 12.75 30.491s12.748-7.648 12.748-30.49c0-23.37-3.187-29.855-12.748-29.855m0 68.1c-17.53 0-22.205-12.748-22.205-38.776 0-24.967 4.676-37.077 22.205-37.077 17.53 0 22.202 12.11 22.202 37.077 0 26.028-4.672 38.776-22.202 38.776M38.823 303.3c-5.845 0-9.987.636-9.987.636v31.02h9.987c5.948 0 10.092-3.931 10.092-15.51 0-10.625-2.55-16.146-10.092-16.146m-1.063 39.412h-8.924v28.045h-9.242v-74.365s9.136-.742 17.954-.742c16.148 0 20.825 9.985 20.825 23.052 0 16.15-5.527 24.01-20.613 24.01m-48.017-6.48v34.525h-9.562v-34.525l-19.015-39.84h10.197l14.023 30.065L-.59 296.392h9.666l-19.333 39.84zm-49.58-31.764v66.29h-9.242v-66.29H-85.44v-8.076h41.963v8.076h-16.36z" style="fill:#000;fill-opacity:1;fill-rule:nonzero;stroke:none" transform="translate(258 -219.156)"/><path d="M-129.969 340.071c-1.501.443-2.697.595-4.262.595-12.84 0-31.7-44.87-31.7-59.804 0-5.5 1.306-7.335 3.142-8.906-15.717 1.833-34.58 7.598-40.607 14.933-1.31 1.835-2.095 4.716-2.095 8.382 0 23.318 24.887 76.234 42.44 76.234 8.12 0 21.817-13.36 33.082-31.434M-138.165 270.383c16.243 0 32.488 2.62 32.488 11.789 0 18.601-11.789 41.131-17.815 41.131-10.74 0-24.101-29.864-24.101-44.798 0-6.81 2.62-8.122 9.428-8.122" style="fill:#ff8700;fill-opacity:1;fill-rule:nonzero;stroke:none" transform="translate(258 -219.156)"/></svg>