<?xml version="1.0" encoding="UTF-8"?> <svg xmlns="http://www.w3.org/2000/svg" fill="#19132D" viewBox="0 0 804 172"><path fill="#19132D" d="M254.015 141c28.412 0 49.075-17.263 51.496-42.7533h-23.407c-2.422 14.0363-13.721 23.5543-28.089 23.5543-19.694 0-32.608-16.617-32.608-41.301s12.914-41.3013 32.447-41.3013c14.367 0 25.506 9.5186 27.604 23.5546h23.569C301.96 37.1013 281.458 20 253.854 20 220.277 20 198 44.2 198 80.5s22.277 60.5 56.015 60.5ZM355.706 141c26.151 0 43.586-17.585 43.586-44.6893 0-26.9427-17.435-44.3667-43.586-44.3667-26.313 0-43.747 17.424-43.747 44.3667 0 27.1043 17.434 44.6893 43.747 44.6893Zm0-17.101c-12.753 0-21.147-9.842-21.147-27.5883 0-16.2947 7.587-27.2654 21.147-27.2654 12.592 0 20.986 9.8414 20.986 27.2654 0 16.6173-7.426 27.5883-20.986 27.5883ZM407.53 139.387h21.469V93.568c0-14.6813 6.458-24.5227 19.21-24.5227 9.686 0 16.143 5.6467 16.143 17.7467v52.595h21.47V86.308c0-19.844-9.686-34.364-31.478-34.364-10.332 0-20.179 5.324-25.022 12.9067h-.323V53.5573H407.53v85.8297ZM497.708 139.387h21.47V93.568c0-14.6813 6.457-24.5227 19.21-24.5227 9.686 0 16.143 5.6467 16.143 17.7467v52.595h21.47V86.308c0-19.844-9.686-34.364-31.479-34.364-10.331 0-20.178 5.324-25.021 12.9067h-.323V53.5573h-21.47v85.8297ZM625.944 141c20.178 0 37.29-12.1 39.55-29.04h-21.147c-2.745 7.583-8.395 11.939-17.919 11.939-12.107 0-20.985-7.744-20.985-22.587h60.858c.161-3.388.161-4.84.161-6.9373 0-25.4907-17.757-42.4307-41.164-42.4307-24.375 0-42.455 17.7467-42.455 44.528 0 25.329 17.595 44.528 43.101 44.528Zm-20.34-53.5627c.969-10.9706 8.233-18.392 19.694-18.392 10.654 0 18.403 6.4534 19.372 18.392h-39.066ZM715.551 141c23.892 0 37.936-13.229 40.196-32.589h-21.954c-1.614 9.357-8.072 15.488-18.242 15.488-12.268 0-20.339-9.196-20.339-27.5883 0-16.456 6.78-27.2654 20.662-27.2654 9.04 0 16.143 5.1627 17.919 15.3267h21.954c-1.614-19.1987-17.918-32.428-39.873-32.428-25.99 0-43.262 17.7467-43.262 44.3667 0 26.7813 16.627 44.6893 42.939 44.6893ZM792.054 140.193c5.005 0 9.525-.322 11.946-.806v-17.586c-.807.162-2.583.323-4.359.323-7.909 0-11.622-2.259-11.622-10.648V69.852H804V53.5573h-15.981V30.4867h-21.47V119.22c0 11.777 7.587 20.973 25.505 20.973Z"></path><path fill="#19132D" fill-rule="evenodd" d="M172 86c0 23.748-9.626 45.248-25.189 60.811L172 172H86c-47.4965 0-86-38.504-86-86C0 38.5035 38.5035 0 86 0c47.496 0 86 38.5035 86 86Zm-69.333 33.661C98.0695 127.941 89.0379 132 78.6926 132 57.0168 132 47 118.199 47 97.417V44h21.84v52.9299c0 12.1771 5.7474 17.8601 14.9432 17.8601 12.9726 0 19.3768-9.904 19.3768-24.6793V44H125v86.376h-21.84v-10.715h-.493Z" clip-rule="evenodd"></path></svg> 