<?xml version="1.0" encoding="UTF-8"?>
<svg id="Layer_2" data-name="Layer 2" xmlns="http://www.w3.org/2000/svg" xmlns:xlink="http://www.w3.org/1999/xlink" viewBox="0 0 801.26 218.68">
  <defs>
    <style>
      .cls-1 {
        fill: #02060f;
      }

      .cls-2 {
        fill: #6e798e;
      }

      .cls-3 {
        fill: url(#linear-gradient-2);
      }

      .cls-4 {
        fill: url(#linear-gradient);
      }

      .cls-5 {
        fill: #2a5cff;
      }
    </style>
    <linearGradient id="linear-gradient" x1="4.98" y1="112.22" x2="87.3" y2="159.74" gradientUnits="userSpaceOnUse">
      <stop offset="0" stop-color="#2a5cff"/>
      <stop offset="1" stop-color="#00309b"/>
    </linearGradient>
    <linearGradient id="linear-gradient-2" x1="168.53" y1="206.64" x2="101.98" y2="168.22" gradientUnits="userSpaceOnUse">
      <stop offset="0" stop-color="#f5bd3e"/>
      <stop offset=".99" stop-color="red"/>
    </linearGradient>
  </defs>
  <g id="Layer_1-2" data-name="Layer 1">
    <g>
      <g id="Group_593" data-name="Group 593">
        <path id="Path_1758" data-name="Path 1758" class="cls-5" d="M31.56,54.67L0,109.34h63.13s63.13,0,63.13,0l-31.56-54.67L63.13,0l-31.56,54.67Z"/>
        <path id="Path_1759" data-name="Path 1759" class="cls-5" d="M189.38,0h-63.13S63.13,0,63.13,0l31.56,54.67,31.56,54.67L189.38,0Z"/>
        <path id="Path_1760" data-name="Path 1760" class="cls-4" d="M63.13,109.34H0s31.56,54.67,31.56,54.67l31.56,54.67,63.13-109.34h-63.13Z"/>
        <path id="Path_1761" data-name="Path 1761" class="cls-3" d="M94.69,164.01l-31.56,54.67h63.13s63.13,0,63.13,0l-31.56-54.67-31.56-54.67-31.56,54.67Z"/>
      </g>
      <g>
        <polygon class="cls-1" points="271.45 71.08 252.22 133.79 232.99 71.08 225.14 71.08 205.98 133.79 186.82 71.08 178.48 71.08 201.81 147.43 209.44 147.43 229.1 83.87 248.68 147.43 256.32 147.43 279.65 71.08 271.45 71.08"/>
        <path class="cls-1" d="M345.54,111.59h4.6c.14-8.95-1.17-16.61-3.92-22.98-2.76-6.36-6.76-11.23-12.02-14.6-5.26-3.37-11.58-5.06-18.98-5.06s-13.61,1.63-18.91,4.88c-5.3,3.25-9.4,7.91-12.3,13.96-2.9,6.06-4.35,13.26-4.35,21.6s1.46,15.31,4.38,21.32c2.92,6.01,7.05,10.65,12.37,13.93,5.32,3.28,11.64,4.91,18.95,4.91s14.07-1.79,19.87-5.37c5.8-3.58,10.23-8.67,13.29-15.27l-7.35-3.25c-2.59,5.14-6.09,9.08-10.5,11.84-4.41,2.76-9.56,4.14-15.45,4.14-8.53,0-15.14-2.83-19.83-8.48-4.33-5.21-6.63-12.42-6.97-21.56h57.13ZM295.38,85.18c4.69-5.68,11.35-8.52,19.97-8.52s14.75,2.73,19.23,8.2c3.81,4.65,6.06,11.12,6.8,19.37h-52.82c.66-7.96,2.91-14.33,6.81-19.05Z"/>
        <path class="cls-1" d="M398.9,65.92c4.31-2.87,9.7-4.31,16.15-4.31,7.07,0,12.84,1.71,17.32,5.12,4.48,3.42,7.66,8.21,9.54,14.39l19.37-5.37c-3.25-9.9-8.85-17.74-16.79-23.54-7.94-5.8-17.76-8.69-29.45-8.69-10.18,0-18.96,2.21-26.33,6.65-7.38,4.43-13.06,10.63-17.04,18.59s-5.97,17.23-5.97,27.78,1.99,19.82,5.97,27.78c3.98,7.97,9.66,14.16,17.04,18.59,7.38,4.43,16.15,6.65,26.33,6.65,11.69,0,21.5-2.9,29.45-8.7,7.94-5.8,13.54-13.64,16.79-23.54l-19.37-5.37c-1.89,6.13-5.07,10.91-9.54,14.35-4.48,3.44-10.25,5.16-17.32,5.16-6.46,0-11.84-1.44-16.15-4.31-4.31-2.87-7.55-6.93-9.72-12.16-2.17-5.23-3.25-11.38-3.25-18.45s1.08-13.22,3.25-18.45c2.17-5.23,5.41-9.28,9.72-12.16Z"/>
        <path class="cls-1" d="M509.08,70.9c-2.31.17-4.55.57-6.72,1.2-2.17.64-4.17,1.52-6.01,2.65-2.4,1.41-4.43,3.2-6.08,5.37-.78,1.03-1.49,2.12-2.12,3.25v-12.3h-16.97v76.35h19.37v-39.02c0-2.92.4-5.55,1.2-7.88.8-2.33,1.98-4.36,3.54-6.08,1.56-1.72,3.46-3.1,5.73-4.14,2.26-1.08,4.79-1.73,7.6-1.94,2.8-.21,5.27.01,7.39.67v-17.96c-2.31-.28-4.62-.34-6.93-.18Z"/>
        <path class="cls-1" d="M577.16,74.61c-5.61-3.77-12.42-5.66-20.43-5.66-7.54,0-14.21,1.71-20.01,5.13-5.8,3.42-10.35,8.21-13.64,14.39-3.3,6.17-4.95,13.43-4.95,21.77,0,7.64,1.68,14.41,5.05,20.33,3.37,5.92,8.03,10.56,14,13.93s12.86,5.06,20.68,5.06c7.35,0,14.13-1.93,20.33-5.8,6.2-3.86,10.73-9.28,13.61-16.26l-19.23-5.51c-1.41,3.11-3.46,5.49-6.15,7.14-2.69,1.65-5.92,2.47-9.69,2.47-5.99,0-10.52-1.95-13.61-5.83-2.26-2.84-3.68-6.56-4.29-11.14h53.6c.8-9.24-.14-17.27-2.83-24.11-2.69-6.83-6.84-12.14-12.44-15.91ZM557.58,85.64c5.61,0,9.65,1.71,12.12,5.13,1.63,2.25,2.71,5.45,3.26,9.58h-33.61c.76-3.52,2-6.45,3.77-8.73,3.09-3.98,7.91-5.98,14.46-5.98Z"/>
        <path class="cls-1" d="M662.21,82.81c-2.69-5.09-6.65-8.67-11.88-10.75-5.23-2.07-11.22-3.11-17.96-3.11-9.19,0-16.45,1.98-21.77,5.94-5.33,3.96-8.96,9.1-10.89,15.41l17.39,5.51c1.23-3.49,3.37-5.91,6.43-7.28,3.06-1.37,6.01-2.05,8.84-2.05,5.09,0,8.72,1.06,10.89,3.18,1.7,1.66,2.72,4.08,3.09,7.22-3.24.49-6.34.95-9.24,1.38-4.95.73-9.38,1.5-13.29,2.3-3.91.8-7.28,1.72-10.11,2.76-4.1,1.51-7.36,3.38-9.79,5.62-2.43,2.24-4.18,4.82-5.27,7.74-1.08,2.92-1.63,6.15-1.63,9.69,0,4.24.98,8.12,2.93,11.63,1.95,3.51,4.83,6.32,8.63,8.41,3.79,2.1,8.42,3.15,13.89,3.15,6.6,0,12.05-1.14,16.37-3.43,3.4-1.8,6.62-4.51,9.65-8.08v9.39h16.83v-46.66c0-3.49-.14-6.65-.42-9.47s-1.18-5.66-2.69-8.48ZM644.25,124.24c-.52,1.08-1.5,2.43-2.93,4.03-1.44,1.6-3.37,3.03-5.8,4.28-2.43,1.25-5.41,1.87-8.94,1.87-2.22,0-4.12-.33-5.73-.99-1.6-.66-2.84-1.61-3.71-2.86-.87-1.25-1.31-2.74-1.31-4.49,0-1.27.27-2.43.81-3.46.54-1.04,1.39-1.99,2.55-2.87,1.15-.87,2.67-1.68,4.56-2.44,1.65-.61,3.56-1.18,5.73-1.7,2.17-.52,5.02-1.1,8.55-1.73,2.27-.41,4.99-.88,8.16-1.42-.04,1.34-.11,2.84-.21,4.53-.17,2.76-.74,5.17-1.73,7.25Z"/>
        <path class="cls-1" d="M701.8,49.87h-19.23v21.21h-13.01v14.85h13.01v29.13c0,4.57.05,8.66.14,12.27s1.08,7.15,2.97,10.64c2.07,3.72,5.1,6.42,9.08,8.1,3.98,1.67,8.51,2.57,13.57,2.69s10.24-.32,15.52-1.31v-15.98c-4.52.61-8.65.8-12.37.57s-6.43-1.7-8.13-4.38c-.9-1.41-1.38-3.31-1.45-5.69s-.11-5.06-.11-8.03v-28h22.06v-14.85h-22.06v-21.21Z"/>
        <path class="cls-1" d="M791.72,114.63h9.26c.8-9.24-.14-17.27-2.83-24.11-2.69-6.83-6.84-12.14-12.44-15.91-5.61-3.77-12.42-5.66-20.43-5.66-7.54,0-14.21,1.71-20.01,5.13-5.8,3.42-10.35,8.21-13.64,14.39-3.3,6.17-4.95,13.43-4.95,21.77,0,7.64,1.68,14.41,5.05,20.33,3.37,5.92,8.03,10.56,14,13.93s12.86,5.06,20.68,5.06c7.35,0,14.13-1.93,20.33-5.8,6.2-3.86,10.73-9.28,13.61-16.26l-19.23-5.51c-1.41,3.11-3.46,5.49-6.15,7.14-2.69,1.65-5.92,2.47-9.69,2.47-5.99,0-10.52-1.95-13.61-5.83-2.26-2.84-3.68-6.56-4.29-11.14h44.34ZM766.13,85.64c5.61,0,9.65,1.71,12.12,5.13,1.63,2.25,2.71,5.45,3.26,9.58h-33.61c.76-3.52,2-6.45,3.77-8.73,3.09-3.98,7.91-5.98,14.46-5.98Z"/>
      </g>
      <g>
        <polygon class="cls-2" points="383.38 192.55 379.98 180.06 376.37 180.09 372.97 192.55 369.56 180.06 365.96 180.06 371.28 198.22 374.66 198.22 378.17 185.96 381.69 198.22 385.07 198.22 390.39 180.06 386.79 180.06 383.38 192.55"/>
        <polygon class="cls-2" points="397.45 198.22 409.31 198.22 409.31 195.02 400.88 195.02 400.88 190.35 407.79 190.35 407.79 187.15 400.88 187.15 400.88 183.27 409.31 183.27 409.31 180.06 397.45 180.06 397.45 198.22"/>
        <path class="cls-2" d="M428.36,188.67c.41-.24.76-.56,1.04-.97.46-.67.69-1.52.69-2.54,0-.8-.19-1.59-.56-2.37s-.95-1.43-1.75-1.95c-.8-.52-1.85-.78-3.14-.78h-7.26v18.16h8.05c1.24,0,2.26-.23,3.08-.7.82-.47,1.42-1.11,1.82-1.94.4-.82.6-1.78.6-2.86,0-1.01-.28-1.92-.85-2.74-.42-.6-.99-1.04-1.71-1.32ZM420.86,183.27h3.73c.66,0,1.16.19,1.5.57.34.38.52.84.52,1.4,0,.45-.09.81-.26,1.09-.18.28-.42.49-.72.62s-.65.2-1.03.2h-3.73v-3.88ZM427.16,193.86c-.21.36-.49.64-.85.83-.36.2-.77.3-1.24.3h-4.21v-4.64h4.21c.53,0,.97.1,1.33.3s.62.46.8.8c.18.34.26.72.26,1.15,0,.49-.1.91-.31,1.27Z"/>
        <path class="cls-2" d="M460.34,181.69c-1.02-.84-2.26-1.35-3.72-1.53-.41-.05-.84-.08-1.29-.09-.45,0-.74-.01-.88-.01h-5.88v18.16h5.88c.14,0,.44,0,.88-.01.45,0,.87-.04,1.29-.09,1.46-.18,2.7-.69,3.72-1.53,1.02-.84,1.79-1.91,2.32-3.2.53-1.29.79-2.71.79-4.25s-.26-2.95-.79-4.25c-.53-1.29-1.3-2.36-2.32-3.2ZM459.46,191.66c-.24.82-.61,1.51-1.11,2.09s-1.14.95-1.93,1.11c-.31.06-.66.1-1.05.11s-.69.02-.92.02h-2.4v-11.7h2.4c.23,0,.53,0,.92.01.39,0,.74.05,1.05.11.77.15,1.4.51,1.9,1.07.5.56.88,1.25,1.13,2.07.25.82.37,1.68.37,2.58s-.12,1.71-.36,2.52Z"/>
        <polygon class="cls-2" points="471.52 198.22 483.38 198.22 483.38 195.02 474.95 195.02 474.95 190.35 481.86 190.35 481.86 187.15 474.95 187.15 474.95 183.27 483.38 183.27 483.38 180.06 471.52 180.06 471.52 198.22"/>
        <path class="cls-2" d="M503.78,189.11c-.52-.37-1.07-.65-1.64-.86-.57-.21-1.09-.37-1.56-.5l-3.15-.86c-.39-.1-.77-.23-1.13-.38-.37-.15-.68-.35-.92-.6s-.37-.57-.37-.96c0-.43.15-.8.45-1.11.3-.31.69-.55,1.16-.71.48-.16.98-.24,1.52-.22.55.02,1.07.13,1.57.34.5.21.93.52,1.29.92.36.4.61.9.74,1.49l3.71-.63c-.29-1.13-.77-2.1-1.44-2.88-.66-.79-1.49-1.38-2.47-1.8-.98-.41-2.1-.62-3.35-.64-1.24,0-2.38.19-3.41.58-1.03.4-1.85,1-2.46,1.8s-.92,1.82-.92,3.04c0,.87.15,1.58.44,2.15.29.57.65,1.02,1.09,1.37.44.35.89.61,1.36.79.47.19.88.33,1.23.43l4.72,1.39c.35.11.64.23.88.37s.41.28.54.43.22.31.27.49c.05.17.08.35.08.54,0,.5-.17.93-.51,1.27-.34.34-.77.61-1.31.78-.53.18-1.08.26-1.64.26-1.01,0-1.91-.28-2.7-.84-.79-.56-1.31-1.37-1.56-2.41l-3.58.53c.18,1.23.62,2.29,1.32,3.17s1.58,1.57,2.66,2.04c1.08.47,2.29.71,3.64.71.92,0,1.82-.12,2.69-.35.87-.23,1.65-.59,2.34-1.06.69-.48,1.24-1.08,1.64-1.8s.61-1.58.61-2.55c0-.91-.17-1.67-.51-2.27s-.77-1.08-1.3-1.44Z"/>
        <rect class="cls-2" x="513.66" y="180.06" width="3.43" height="18.16"/>
        <path class="cls-2" d="M542.03,188.61h-6.53v2.65h2.87c-.19.96-.5,1.75-.93,2.36-.44.61-.97,1.06-1.61,1.35s-1.34.42-2.12.4c-1.15-.02-2.11-.28-2.87-.79-.77-.51-1.34-1.23-1.72-2.16s-.57-2.02-.57-3.28.19-2.36.57-3.3.96-1.67,1.72-2.18,1.72-.76,2.87-.75c1.16,0,2.11.33,2.86.97.74.63,1.28,1.48,1.61,2.54l3.51-.5c-.45-1.98-1.35-3.52-2.69-4.6-1.34-1.08-3.17-1.62-5.51-1.62-1.58,0-3.02.37-4.32,1.11-1.3.74-2.33,1.81-3.1,3.22s-1.15,3.12-1.15,5.13c0,1.54.23,2.9.69,4.07.46,1.18,1.08,2.16,1.88,2.96.79.8,1.71,1.4,2.74,1.81s2.12.61,3.27.61c1.75,0,3.26-.38,4.55-1.14,1.29-.76,2.28-1.81,2.99-3.16.71-1.34,1.06-2.89,1.06-4.63,0-.04,0-.2-.01-.48,0-.28-.02-.47-.04-.58Z"/>
        <polygon class="cls-2" points="561.02 192.17 553.13 180.06 549.65 180.06 549.65 198.22 553.13 198.22 553.13 186.12 561.02 198.22 564.5 198.22 564.5 180.06 561.02 180.06 561.02 192.17"/>
        <path class="cls-2" d="M596.05,193.13c.02-.42.03-.83.03-1.22v-3.45h-2.98v3.1l-4.16-3.86c-.24-.22-.46-.43-.67-.63s-.39-.38-.54-.53c-.2-.22-.38-.44-.53-.67-.15-.23-.23-.53-.23-.92,0-.43.09-.79.27-1.07.18-.29.46-.52.84-.69.36-.17.78-.25,1.26-.25.3,0,.61.04.93.11.32.07.6.23.83.47.25.25.43.55.53.91l3.4-.68c-.1-.42-.26-.83-.47-1.25s-.49-.79-.81-1.12c-.53-.58-1.17-1-1.93-1.25s-1.55-.38-2.38-.38c-.41,0-.84.03-1.27.08-.44.05-.87.15-1.3.3-1.03.36-1.85.98-2.45,1.84s-.9,1.85-.9,2.95c0,.67.11,1.25.34,1.76.23.51.57,1.02,1.02,1.54-.16.13-.32.26-.48.4-.16.14-.31.29-.45.46-.44.51-.76,1.1-.97,1.76-.21.66-.32,1.35-.32,2.07.03.73.15,1.41.37,2.04.22.63.58,1.22,1.07,1.76.6.66,1.36,1.13,2.27,1.44.91.3,1.87.45,2.88.45.3,0,.6,0,.89-.03.29-.02.62-.05.97-.1.56-.09,1.1-.26,1.65-.5.54-.25,1.05-.57,1.53-.98l1.66,1.59,2.19-2.34-2.22-2.04c.07-.28.11-.63.12-1.05ZM591.22,195.02c-.22.1-.47.17-.74.22-.18.03-.35.06-.53.08-.18.02-.36.03-.56.03-.46,0-.96-.08-1.49-.23-.53-.15-.93-.4-1.21-.75-.16-.22-.3-.46-.41-.73s-.17-.58-.17-.94c0-.3.04-.58.11-.82.08-.24.18-.46.31-.64.1-.13.22-.25.36-.35.14-.11.3-.2.47-.28l4.44,4.09c-.18.12-.38.24-.6.33Z"/>
        <polygon class="cls-2" points="624.37 192.12 618.37 180.06 615.29 180.06 615.29 198.22 618.5 198.22 618.5 187.38 623.77 198.22 624.98 198.22 630.25 187.38 630.25 198.22 633.45 198.22 633.45 180.06 630.38 180.06 624.37 192.12"/>
        <path class="cls-2" d="M646.31,180.06l-5.55,18.16h3.53l1.15-3.78h6.84l1.17,3.78h3.53l-5.55-18.16h-5.12ZM646.42,191.24l2.42-7.96,2.46,7.96h-4.88Z"/>
        <path class="cls-2" d="M677.03,189.97c.76-1.08,1.14-2.38,1.14-3.9,0-1.02-.16-1.94-.49-2.77-.33-.83-.84-1.52-1.53-2.06-.69-.54-1.58-.9-2.67-1.07-.23-.04-.5-.07-.8-.08s-.54-.02-.71-.02h-7.67v18.16h3.43v-6.16h3.83l2.98,6.16h3.88l-3.29-6.75c.79-.35,1.44-.84,1.9-1.51ZM667.73,183.27h4.09c.18,0,.37,0,.58.03.21.02.4.05.58.1.46.12.82.34,1.07.64.25.3.43.63.52,1s.15.71.15,1.04-.05.67-.15,1.04-.27.7-.52,1c-.25.3-.61.51-1.07.64-.18.05-.37.08-.58.1-.21.02-.4.02-.58.02h-4.09v-5.6Z"/>
        <polygon class="cls-2" points="700.76 180.06 696.58 180.06 689.67 188.44 689.67 180.06 686.24 180.06 686.24 198.22 689.67 198.22 689.67 189.95 696.9 198.22 701.24 198.22 693.17 189.02 700.76 180.06"/>
        <polygon class="cls-2" points="708.05 198.22 719.9 198.22 719.9 195.02 711.48 195.02 711.48 190.35 718.39 190.35 718.39 187.15 711.48 187.15 711.48 183.27 719.9 183.27 719.9 180.06 708.05 180.06 708.05 198.22"/>
        <polygon class="cls-2" points="726.46 183.27 732.18 183.27 732.18 198.22 735.61 198.22 735.61 183.27 741.34 183.27 741.34 180.06 726.46 180.06 726.46 183.27"/>
        <rect class="cls-2" x="748.65" y="180.06" width="3.43" height="18.16"/>
        <polygon class="cls-2" points="772.28 192.17 764.39 180.06 760.91 180.06 760.91 198.22 764.39 198.22 764.39 186.12 772.28 198.22 775.76 198.22 775.76 180.06 772.28 180.06 772.28 192.17"/>
        <path class="cls-2" d="M800.49,189.19c0-.28-.02-.47-.04-.58h-6.53v2.65h2.87c-.19.96-.5,1.75-.93,2.36-.44.61-.97,1.06-1.61,1.35s-1.34.42-2.12.4c-1.15-.02-2.11-.28-2.87-.79-.77-.51-1.34-1.23-1.72-2.16s-.57-2.02-.57-3.28.19-2.36.57-3.3.96-1.67,1.72-2.18,1.72-.76,2.87-.75c1.16,0,2.11.33,2.86.97.74.63,1.28,1.48,1.61,2.54l3.51-.5c-.45-1.98-1.35-3.52-2.69-4.6-1.34-1.08-3.17-1.62-5.51-1.62-1.58,0-3.02.37-4.32,1.11-1.3.74-2.33,1.81-3.1,3.22s-1.15,3.12-1.15,5.13c0,1.54.23,2.9.69,4.07.46,1.18,1.08,2.16,1.88,2.96.79.8,1.71,1.4,2.74,1.81s2.12.61,3.27.61c1.75,0,3.26-.38,4.55-1.14,1.29-.76,2.28-1.81,2.99-3.16.71-1.34,1.06-2.89,1.06-4.63,0-.04,0-.2-.01-.48Z"/>
      </g>
    </g>
  </g>
</svg>