<?xml version="1.0" encoding="UTF-8" standalone="no"?>
<svg
   width="446px"
   height="245px"
   viewBox="0 0 446 245"
   version="1.1"
   id="svg46"
   sodipodi:docname="xdebug-cloud.svg"
   inkscape:version="1.2.2 (b0a8486541, 2022-12-01)"
   xmlns:inkscape="http://www.inkscape.org/namespaces/inkscape"
   xmlns:sodipodi="http://sodipodi.sourceforge.net/DTD/sodipodi-0.dtd"
   xmlns="http://www.w3.org/2000/svg"
   xmlns:svg="http://www.w3.org/2000/svg">
  <defs
     id="defs50" />
  <sodipodi:namedview
     id="namedview48"
     pagecolor="#ffffff"
     bordercolor="#111111"
     borderopacity="1"
     inkscape:showpageshadow="0"
     inkscape:pageopacity="0"
     inkscape:pagecheckerboard="1"
     inkscape:deskcolor="#d1d1d1"
     showgrid="false"
     inkscape:zoom="2.9125561"
     inkscape:cx="191.41263"
     inkscape:cy="122.57275"
     inkscape:window-width="1920"
     inkscape:window-height="1051"
     inkscape:window-x="1920"
     inkscape:window-y="0"
     inkscape:window-maximized="1"
     inkscape:current-layer="svg46" />
  <title
     id="title2">Group 3</title>
  <path
     d="m 408.4,142.3 c 3.9,-7.7 6.1,-16.4 6.1,-25.6 0,-31.6 -25.6,-57.1 -57.1,-57.1 -8.7,0 -17,2 -24.3,5.4 -7.7,-37.1 -40.6,-65 -79.9,-65 -36.7,0 -67.8,24.3 -78.1,57.6 -7.8,-2.4 -16,-3.7 -24.6,-3.7 -33.3,0 -62.1,19.5 -75.5,47.8 -5.1,10.8 -8,22.9 -8,35.7 0,0.9 0,1.9 0.1,2.8 h -15 C 23.3,140.2 0,163.5 0,192.3 v 0 c 0,28.8 23.3,52.1 52.1,52.1 h 341.7 c 28.8,0 52.1,-23.3 52.1,-52.1 v 0 c -0.1,-23.7 -15.9,-43.7 -37.5,-50 z"
     id="Path"
     fill="#ffffff"
     fill-rule="nonzero"
     style="stroke:#317e1e;stroke-width:1.8;stroke-opacity:1;stroke-dasharray:none" />
  <g
     id="Group"
     transform="translate(252,181.7)"
     fill="#317e1e"
     fill-rule="nonzero"
     style="stroke:none;stroke-width:1">
    <path
       d="m 16.5,25.1 v 2.1 c 0,1.1 -0.2,2.1 -0.6,3 -0.4,0.9 -1,1.8 -1.7,2.5 -0.7,0.7 -1.5,1.3 -2.5,1.8 -0.9,0.4 -2,0.7 -3.1,0.7 C 7.7,35.2 6.7,35.1 5.8,34.8 4.8,34.5 4,34.1 3.2,33.5 2.4,32.9 1.8,32 1.3,31 0.8,30 0.6,28.7 0.6,27.1 V 8.2 C 0.6,7.1 0.8,6 1.2,5.1 1.6,4.1 2.1,3.3 2.8,2.6 3.5,1.9 4.3,1.3 5.3,0.9 6.3,0.5 7.4,0.3 8.6,0.3 c 2.3,0 4.2,0.8 5.6,2.3 0.7,0.7 1.3,1.6 1.7,2.6 0.4,1 0.6,2.1 0.6,3.3 v 1.9 H 11.6 V 8.8 C 11.6,7.8 11.3,7 10.8,6.3 10.3,5.6 9.5,5.2 8.6,5.2 7.4,5.2 6.6,5.6 6.2,6.3 5.8,7.1 5.6,8 5.6,9.2 v 17.5 c 0,1 0.2,1.8 0.7,2.5 0.4,0.7 1.2,1 2.3,1 0.3,0 0.7,-0.1 1,-0.2 0.4,-0.1 0.7,-0.3 1,-0.6 0.3,-0.3 0.5,-0.6 0.7,-1.1 0.2,-0.4 0.3,-1 0.3,-1.7 v -1.7 h 4.9 z"
       id="path5" />
    <polygon
       id="polygon7"
       points="34.5,30 34.5,34.9 19.9,34.9 19.9,0.6 24.8,0.6 24.8,30 " />
    <path
       d="M 37.4,8.6 C 37.4,7.2 37.6,6 38.1,4.9 38.6,3.8 39.2,3 40,2.2 40.8,1.5 41.6,1 42.6,0.7 c 1,-0.4 2,-0.5 3,-0.5 1,0 2,0.2 3,0.5 1,0.4 1.9,0.9 2.7,1.5 0.8,0.7 1.4,1.6 1.9,2.7 0.5,1.1 0.7,2.3 0.7,3.7 v 18.1 c 0,1.4 -0.2,2.7 -0.7,3.7 -0.5,1 -1.1,1.9 -1.9,2.6 -0.8,0.7 -1.7,1.2 -2.7,1.6 -1,0.4 -2,0.5 -3,0.5 -1,0 -2,-0.2 -3,-0.5 -1,-0.4 -1.9,-0.9 -2.6,-1.6 -0.8,-0.7 -1.4,-1.5 -1.9,-2.6 -0.5,-1 -0.7,-2.3 -0.7,-3.7 z m 4.9,18.2 c 0,1.2 0.3,2.1 1,2.6 0.7,0.6 1.4,0.8 2.3,0.8 0.9,0 1.7,-0.3 2.3,-0.8 0.7,-0.6 1,-1.4 1,-2.6 V 8.7 c 0,-1.2 -0.3,-2.1 -1,-2.6 -0.7,-0.6 -1.4,-0.8 -2.3,-0.8 -0.9,0 -1.7,0.3 -2.3,0.8 -0.7,0.6 -1,1.4 -1,2.6 z"
       id="Shape" />
    <path
       d="m 73.4,0.6 v 26.6 c 0,1.1 -0.2,2.2 -0.6,3.1 -0.4,0.9 -1,1.8 -1.7,2.5 -0.7,0.7 -1.6,1.3 -2.6,1.7 -1,0.4 -2,0.6 -3.1,0.6 -1.1,0 -2.1,-0.2 -3.1,-0.6 -0.9,-0.4 -1.8,-1 -2.5,-1.7 -0.7,-0.7 -1.3,-1.6 -1.7,-2.5 -0.4,-0.9 -0.6,-2 -0.6,-3.1 V 0.6 h 4.9 v 26.1 c 0,1.2 0.3,2.1 0.9,2.7 0.6,0.6 1.3,0.9 2.2,0.9 0.9,0 1.6,-0.3 2.2,-0.9 0.6,-0.6 0.9,-1.5 0.9,-2.7 V 0.6 Z"
       id="path10" />
    <path
       d="M 77.2,34.9 V 0.6 h 7.3 c 2.8,0 5,0.8 6.4,2.3 1.5,1.5 2.2,3.7 2.2,6.6 v 16.1 c 0,3.2 -0.8,5.6 -2.3,7.1 C 89.2,34.2 87,35 84.1,35 h -6.9 z m 5,-29.7 v 25.1 h 2.3 c 1.4,0 2.4,-0.3 2.9,-1 0.6,-0.7 0.9,-1.8 0.9,-3.3 V 9.5 C 88.3,8.2 88,7.1 87.5,6.4 87,5.7 86,5.3 84.5,5.3 h -2.3 z"
       id="path12" />
  </g>
  <g
     id="g42"
     transform="translate(44,52)"
     stroke="#ffffff"
     style="fill:none;fill-rule:evenodd;stroke-width:1">
    <g
       id="g38">
      <path
         d="m 130.3,88.3 68.2,70.7 0.4,17.3 h -38.6 l -60.8,-59.7 -60,59.7 H 0.5 V 158.7 L 70.2,88.9 0.6,17.7 V 0.3 h 38.7 l 60.2,60 61,-60 h 38.3 v 16 c 0,0 -68.5,72 -68.5,72 z"
         id="path15"
         stroke-width="5"
         fill="#317e1e"
         fill-rule="nonzero" />
      <circle
         id="Oval"
         stroke-opacity="0.8"
         stroke-width="4"
         cx="78.300003"
         cy="77.400002"
         r="3.5" />
      <circle
         id="circle18"
         stroke-opacity="0.8"
         stroke-width="4"
         cx="107.5"
         cy="87.800003"
         r="3.5" />
      <circle
         id="circle20"
         stroke-opacity="0.8"
         stroke-width="4"
         cx="160.8"
         cy="17.799999"
         r="3.5" />
      <circle
         id="circle22"
         stroke-opacity="0.8"
         stroke-width="4"
         cx="53.299999"
         cy="142.8"
         r="3.5" />
      <circle
         id="circle24"
         stroke-opacity="0.8"
         stroke-width="4"
         cx="182.8"
         cy="161.3"
         r="3.5" />
      <path
         d="m 35,161 9.4,-9.2 m 62.3,-79.9 49.4,-49.4"
         id="path26"
         stroke-width="4"
         stroke-linecap="square"
         stroke-linejoin="round" />
      <path
         d="M 104.7,85.5 32.7,12.8 H 13.6 m 156.2,0 h 15.6 M 13.6,163.5 92.8,85.5"
         id="path28"
         stroke-width="4"
         stroke-linejoin="round" />
      <line
         x1="118.7"
         y1="77.400002"
         x2="183.39999"
         y2="12.8"
         id="line30"
         stroke-opacity="0.7"
         stroke-width="4"
         stroke-linejoin="round" />
      <line
         x1="23.1"
         y1="22.5"
         x2="75.800003"
         y2="75.099998"
         id="line32"
         stroke-width="4"
         stroke-linejoin="round" />
      <line
         x1="118.7"
         y1="99.5"
         x2="150.7"
         y2="131.5"
         id="line34"
         stroke-opacity="0.7"
         stroke-width="4"
         stroke-linejoin="round" />
      <path
         d="m 157.6,136.4 22.1,22 M 56,140.3 99.4,97.7 l 67.1,66.6 h 4.9"
         id="path36"
         stroke-width="4"
         stroke-linejoin="round" />
    </g>
    <path
       d="M 155.7,105.5 V 70.7 c 0,-0.5 0,-0.5 -0.8,-0.5 -0.7,0 -0.7,0 -0.7,0.6 v 34.7 c 0,0.6 0,0.5 0.7,0.5 0.8,0 0.7,0 0.8,-0.5 z m 3.9,11.2 c -6.4,2.9 -13.8,2.6 -20,-0.7 -3.4,-2 -5.2,-4.8 -5.2,-8.4 V 67.4 c 0,-3 1.5,-5.6 4.3,-7.4 2.8,-1.7 6,-2.5 9.2,-2.4 3,0 5.6,0.3 7.7,1 V 44.8 h 19.8 v 73 h -15 c 0,0 -0.8,-1.1 -0.8,-1.1 z M 198.3,81.8 V 71 c 0,-0.8 0,-0.8 -0.8,-0.8 -0.8,0 -0.8,0 -0.8,0.8 v 10.8 z m -1.6,12.5 v 11 c 0,0.7 0,0.7 0.8,0.7 0.7,0 0.8,0 0.8,-0.8 V 95 h 19.8 v 10.4 c 0,8.9 -7.3,13.2 -20.7,13.2 -13.3,0 -20.5,-4.5 -20.5,-13.7 V 71.4 c 0,-9.2 7.2,-13.8 20.5,-13.8 13.4,0 20.7,4.4 20.7,13.4 v 23.3 z m 44,11.2 V 70.8 c 0,-0.6 0,-0.6 -0.7,-0.6 -0.8,0 -0.8,0 -0.8,0.5 v 34.8 c 0,0.6 0,0.5 0.8,0.5 0.7,0 0.7,0 0.7,-0.5 z m -5.4,11.1 -0.9,1.3 h -15 V 44.8 h 19.8 v 13.8 c 2.1,-0.7 4.7,-1 7.9,-1 3.1,0 6.1,0.8 8.8,2.3 3,1.6 4.6,4.2 4.6,7.5 v 40.2 c 0,3.6 -1.8,6.4 -5.3,8.4 -6.1,3.3 -13.5,3.5 -19.9,0.6 z m 47.9,0.9 c -2.1,0.8 -4.7,1.1 -7.8,1.1 -3.2,0.1 -6.4,-0.8 -9.1,-2.4 -2.8,-1.7 -4.4,-4.2 -4.4,-7.2 V 58 h 19.8 v 47.5 c 0,0.6 0,0.5 0.8,0.5 0.7,0 0.7,0 0.7,-0.4 V 57.8 H 303 v 60 h -19.8 z m 42.5,-11.4 V 70.8 c 0,-0.6 0,-0.6 -0.7,-0.6 -0.8,0 -0.8,0 -0.8,0.6 v 35 c 0,0.6 0,0.6 0.8,0.6 0.7,0 0.7,0 0.7,-0.3 z m -0.9,11.8 c -2,0.5 -4.2,0.7 -6.9,0.7 -3.2,0.1 -6.4,-0.8 -9.1,-2.4 -2.9,-1.7 -4.4,-4.2 -4.4,-7.2 V 68.8 c 0,-7.4 5.2,-11.2 14.6,-11.2 2.3,0 5,0.7 8.3,2 l 1.7,-1.7 h 16.4 v 57.3 c 0,4.4 -1,9.5 -2.8,12 -2.1,3.2 -7.7,4.5 -17,4.5 h -18.4 v -12 h 14.9 c 1.1,0 2,-0.7 2.7,-1.8 z"
       id="path40"
       stroke-width="4"
       fill="#000000"
       fill-rule="nonzero" />
  </g>
</svg>
