<svg id="zdlogofooter" data-name="Ziff Davis Logo" xmlns="http://www.w3.org/2000/svg" viewBox="0 0 298.63 174.94"><path d="M102,15.57H83.2V.09H102ZM83.2,26.16H102V94.57H83.2Z" transform="translate(-0.15 -0.09)" style="fill:#221276"></path><path d="M117,38.73H105.72V26.16H117v-5.3C117,8.69,124.51.09,139.86.09c3.31,0,6.75.4,9.92.53v14a58.78,58.78,0,0,0-6.88-.4c-5.16,0-7.14,2.12-7.14,7.81v4.1h13V38.73h-13V94.57H117Z" transform="translate(-0.15 -0.09)" style="fill:#221276"></path><path d="M154.59,38.73H143.34V26.16h11.25v-5.3c0-12.17,7.54-20.77,22.89-20.77,3.31,0,6.75.4,9.92.53v14a58.78,58.78,0,0,0-6.88-.4c-5.16,0-7.14,2.12-7.14,7.81v4.1h13V38.73h-13V94.57H154.59Z" transform="translate(-0.15 -0.09)" style="fill:#221276"></path><path d="M31.37,73.6l-2.95,3.5H50.91a31.52,31.52,0,0,1,13.77,3,29.66,29.66,0,0,1,6.68,4.44,30.31,30.31,0,0,1,7.46,10.07H.77V78.14L4.58,73.6l3-3.57L51.44,17.56H4.75V.09H79.1V16.48L34.35,70Z" transform="translate(-0.15 -0.09)" style="fill:#221276"></path><path d="M80.57,103.2h-24c5.17,5.44,7.18,13.79,7.18,24.16,0,20.9-11.54,28.31-23.57,28.31H21.65V103.2H.86v69.94H41.62c28.83,0,42.87-20.38,42.87-47.76A58.44,58.44,0,0,0,80.57,103.2Z" transform="translate(-0.15 -0.09)" style="fill:#221276"></path><path d="M148.78,157.93v-35.6c0-13.69-11.37-18.06-23-19.13a68.79,68.79,0,0,0-7-.31,8.43,8.43,0,0,0-.87,0c-15.08.17-30.26,5.69-31.3,22.84h18.79c.66-7.42,5.16-10.33,12.44-10.33,6.62,0,12.17,1.32,12.17,9.29.79,15.32-45.23-1.35-45.51,29.77,0,14,10.19,20.49,23.29,20.49,8.46,0,17-2.25,23-8.46a28.37,28.37,0,0,0,1.32,6.62h19.06C149.44,170.37,148.78,164.13,148.78,157.93ZM130,146.66c0,4.23-.52,15.77-15.22,15.77-6.06,0-11.51-1.87-11.51-8.73s5.31-9,11.13-10.09,12.44-1.18,15.6-4Z" transform="translate(-0.15 -0.09)" style="fill:#221276"></path><path d="M195.32,104.72,180.9,151.44h-.27l-14.42-46.72H146.49l23.43,68.42h20.9L214,104.72Z" transform="translate(-0.15 -0.09)" style="fill:#221276"></path><path d="M214.38,104.72v68.42h18.79V104.72Zm0-26.06V94.15h18.79V78.66Z" transform="translate(-0.15 -0.09)" style="fill:#221276"></path><path d="M277.08,132c-10.57-2.5-21.31-3.44-21.31-10.16,0-5.72,6.24-6.38,10.46-6.38,6.76,0,12.31,2,12.83,9.29h17.88c-1.45-16.81-15.35-21.83-30.19-21.83S237,107.36,237,124.83c0,12.2,10.71,15.77,21.7,18.26C272.06,145.86,280,148,280,153.7c0,6.58-7,8.73-12.3,8.73-7.28,0-14.42-3.46-14.42-11.54H235.39C236.05,169,251.68,175,267.55,175c15.49,0,31.23-5.82,31.23-23.81C298.78,138.48,288.07,134.5,277.08,132Z" transform="translate(-0.15 -0.09)" style="fill:#221276"></path><path d="M101.38,15.62H82.59V.14h18.79ZM82.59,26.21h18.79V94.62H82.59Z" transform="translate(-0.15 -0.09)" style="fill:#221276"></path><path d="M116.35,38.78H105.11V26.21h11.24V20.92C116.35,8.74,123.9.14,139.24.14c3.31,0,6.75.4,9.93.53v14a58.78,58.78,0,0,0-6.88-.4c-5.16,0-7.15,2.12-7.15,7.81v4.1h13V38.78h-13V94.62H116.35Z" transform="translate(-0.15 -0.09)" style="fill:#221276"></path><path d="M154,38.78H142.73V26.21H154V20.92C154,8.74,161.52.14,176.86.14c3.31,0,6.75.4,9.93.53v14a58.78,58.78,0,0,0-6.88-.4c-5.16,0-7.15,2.12-7.15,7.81v4.1h13V38.78h-13V94.62H154Z" transform="translate(-0.15 -0.09)" style="fill:#221276"></path><path d="M30.76,73.65l-3,3.5H50.29a31.56,31.56,0,0,1,13.78,3,30,30,0,0,1,6.68,4.44,30.31,30.31,0,0,1,7.46,10.07H.15V78.19L4,73.65l3-3.57L50.82,17.61H4.14V.14H78.48V16.53L33.74,70.08Z" transform="translate(-0.15 -0.09)" style="fill:#221276"></path><path d="M80,103.25h-24c5.16,5.44,7.17,13.79,7.17,24.16,0,20.9-11.54,28.31-23.56,28.31H21V103.25H.24v69.94H41c28.84,0,42.87-20.38,42.87-47.76A58.49,58.49,0,0,0,80,103.25Z" transform="translate(-0.15 -0.09)" style="fill:#221276"></path><path d="M148.17,158v-35.6c0-13.69-11.37-18.06-23-19.13a69.11,69.11,0,0,0-7-.31,8.14,8.14,0,0,0-.86,0c-15.08.18-30.26,5.69-31.3,22.84h18.78c.66-7.41,5.17-10.32,12.45-10.32,6.62,0,12.16,1.31,12.16,9.28.8,15.32-45.23-1.35-45.51,29.78,0,14,10.19,20.48,23.3,20.48,8.45,0,17-2.25,23-8.46a28.26,28.26,0,0,0,1.32,6.62h19.06C148.83,170.42,148.17,164.18,148.17,158Zm-18.79-11.27c0,4.23-.52,15.77-15.21,15.77-6.07,0-11.51-1.87-11.51-8.73s5.3-9,11.13-10.09,12.44-1.18,15.59-3.95Z" transform="translate(-0.15 -0.09)" style="fill:#221276"></path><path d="M194.71,104.78,180.29,151.5H180l-14.42-46.72H145.87l23.43,68.41h20.9l23.15-68.41Z" transform="translate(-0.15 -0.09)" style="fill:#221276"></path><path d="M213.77,104.78v68.41h18.79V104.78Zm0-26.07V94.2h18.79V78.71Z" transform="translate(-0.15 -0.09)" style="fill:#221276"></path><path d="M276.47,132c-10.57-2.5-21.32-3.43-21.32-10.16,0-5.72,6.24-6.37,10.47-6.37,6.76,0,12.3,2,12.82,9.28h17.89C294.87,108,281,102.94,266.14,102.94s-29.77,4.47-29.77,21.94c0,12.2,10.71,15.77,21.69,18.26,13.38,2.78,21.32,4.89,21.32,10.61,0,6.58-7,8.73-12.3,8.73-7.28,0-14.42-3.46-14.42-11.54H234.77c.66,18.13,16.29,24.09,32.17,24.09,15.49,0,31.23-5.82,31.23-23.81C298.17,138.53,287.46,134.55,276.47,132Z" transform="translate(-0.15 -0.09)" style="fill:#221276"></path></svg>