<?xml version="1.0" encoding="UTF-8" standalone="no"?>
<svg
   height="16"
   width="16"
   version="1.1"
   id="svg1"
   sodipodi:docname="errors.svg"
   inkscape:version="1.4 (e7c3feb100, 2024-10-09)"
   xmlns:inkscape="http://www.inkscape.org/namespaces/inkscape"
   xmlns:sodipodi="http://sodipodi.sourceforge.net/DTD/sodipodi-0.dtd"
   xmlns="http://www.w3.org/2000/svg"
   xmlns:svg="http://www.w3.org/2000/svg">
  <defs
     id="defs1" />
  <sodipodi:namedview
     id="namedview1"
     pagecolor="#ffffff"
     bordercolor="#111111"
     borderopacity="1"
     inkscape:showpageshadow="0"
     inkscape:pageopacity="0"
     inkscape:pagecheckerboard="1"
     inkscape:deskcolor="#d1d1d1"
     inkscape:zoom="36.018252"
     inkscape:cx="7.9959461"
     inkscape:cy="9.2453127"
     inkscape:window-width="1240"
     inkscape:window-height="1047"
     inkscape:window-x="2321"
     inkscape:window-y="22"
     inkscape:window-maximized="0"
     inkscape:current-layer="svg1" />
  <path
     class="error"
     color="#bebebe"
     d="M 8,1 C 4.129875,1 1,4.129 1,8 c 0,3.871 3.129875,7 7,7 3.871,0 7,-3.129 7,-7 C 15,4.129 11.871,1 8,1 Z M 8,1.875 A 6.125,6.125 0 0 1 14.125,8 6.125,6.125 0 0 1 8,14.125 6.125,6.125 0 0 1 1.875,8 6.125,6.125 0 0 1 8,1.875 Z m -0.875,1.75 v 3.5 L 7.5625,9.75 h 0.875 L 8.875,7.125 v -3.5 z m 0.875,7 a 0.875,0.875 0 1 0 0,1.75 0.875,0.875 0 0 0 0,-1.75 z"
     fill="#c6262e"
     overflow="visible"
     style="text-indent:0;text-transform:none;fill:#767676;fill-opacity:1;stroke-width:0.875;marker:none"
     id="path1" />
</svg>
